<svg width="253" height="342" viewBox="0 0 253 342" fill="none" xmlns="http://www.w3.org/2000/svg">
<path d="M60.706 6.36357C58.6257 3.87818 54.9046 3.66802 52.4669 5.80407C34.1932 21.8168 24.1193 33.7129 12.4109 59.7327C12.2067 60.1865 12.0547 60.6863 11.9709 61.1768C6.79373 91.4818 11.1754 101.866 21.0318 113.142C22.9967 115.39 26.3597 115.731 28.7572 113.952C49.0445 98.8986 58.8767 84.0203 72.0724 52.5297C72.2938 52.0013 72.4434 51.4242 72.5032 50.8544C74.7393 29.5496 71.3646 19.0976 60.706 6.36357Z" fill="#D15112"/>
<path d="M111.474 28.5607C107.507 25.9306 102.192 28.7876 101.973 33.542C99.1013 95.8139 74.5674 126.782 28.5956 167.117C27.9745 167.662 27.4541 168.352 27.1031 169.1C5.77003 214.577 5.29175 237.802 43.8819 279.166C45.0079 280.373 46.6094 281.071 48.2601 281.071H195.135C196.583 281.071 197.989 280.549 199.071 279.587C218.763 262.089 223.689 249.584 231.245 227.943C231.462 227.321 231.578 226.65 231.583 225.992C231.958 178.476 232.831 151.381 200.488 110.769C170.851 71.6393 149.107 53.513 111.474 28.5607Z" fill="#D15112"/>
<path d="M60.706 6.36357C58.6257 3.87818 54.9046 3.66802 52.4669 5.80407C34.1932 21.8168 24.1193 33.7129 12.4109 59.7327C12.2067 60.1865 12.0547 60.6863 11.9709 61.1768C6.79373 91.4818 11.1754 101.866 21.0318 113.142C22.9967 115.39 26.3597 115.731 28.7572 113.952C49.0445 98.8986 58.8767 84.0203 72.0724 52.5297C72.2938 52.0013 72.4434 51.4242 72.5032 50.8544C74.7393 29.5496 71.3646 19.0976 60.706 6.36357Z" stroke="#513513" stroke-width="7.52212"/>
<path d="M111.474 28.5607C107.507 25.9306 102.192 28.7876 101.973 33.542C99.1013 95.8139 74.5674 126.782 28.5956 167.117C27.9745 167.662 27.4541 168.352 27.1031 169.1C5.77003 214.577 5.29175 237.802 43.8819 279.166C45.0079 280.373 46.6094 281.071 48.2601 281.071H195.135C196.583 281.071 197.989 280.549 199.071 279.587C218.763 262.089 223.689 249.584 231.245 227.943C231.462 227.321 231.578 226.65 231.583 225.992C231.958 178.476 232.831 151.381 200.488 110.769C170.851 71.6393 149.107 53.513 111.474 28.5607Z" stroke="#513513" stroke-width="7.52212"/>
<path d="M85.0017 233.888C83.156 218.541 84.8126 210.385 88.7329 195.995C99.5306 177.022 107.537 170.516 122.313 159.965C122.313 171.869 123.06 178.352 129.775 188.54C145.212 206.008 152.282 215.956 162.733 233.888C165.228 249.216 164.191 257.24 157.758 270.54L85.0017 233.888Z" fill="#F8DB03" stroke="#513513" stroke-width="7.52212"/>
<path d="M103.159 280.73L169.177 282.355C171.584 282.414 172.398 279.166 170.247 278.083L88.2058 236.76C86.741 236.023 85.0032 237.044 84.9359 238.683L83.3057 278.381C83.2531 279.662 84.2778 280.73 85.5605 280.73H103.159Z" fill="#FFAB40"/>
<path d="M31.2168 335.606C31.2168 336.852 32.2271 337.863 33.4734 337.863H92.146C93.3923 337.863 94.4026 336.852 94.4026 335.606V286.336C94.4026 285.09 93.3923 284.08 92.146 284.08H33.4734C32.2271 284.08 31.2168 285.09 31.2168 286.336V335.606Z" fill="#FFAB40"/>
<path d="M100.42 284.08C99.174 284.08 98.1637 285.09 98.1637 286.336V335.606C98.1637 336.852 99.174 337.863 100.42 337.863H237.667C238.525 337.863 239.316 337.364 239.693 336.593C251.1 313.264 251.339 304.413 239.731 285.168C239.325 284.496 238.59 284.08 237.805 284.08H100.42Z" fill="#FFAB40"/>
<path d="M103.159 280.73L169.177 282.355C171.584 282.414 172.398 279.166 170.247 278.083L88.2058 236.76C86.741 236.023 85.0032 237.044 84.9359 238.683L83.3057 278.381C83.2531 279.662 84.2778 280.73 85.5605 280.73H103.159Z" stroke="#513513" stroke-width="7.52212"/>
<path d="M31.2168 335.606C31.2168 336.852 32.2271 337.863 33.4734 337.863H92.146C93.3923 337.863 94.4026 336.852 94.4026 335.606V286.336C94.4026 285.09 93.3923 284.08 92.146 284.08H33.4734C32.2271 284.08 31.2168 285.09 31.2168 286.336V335.606Z" stroke="#513513" stroke-width="7.52212"/>
<path d="M100.42 284.08C99.174 284.08 98.1637 285.09 98.1637 286.336V335.606C98.1637 336.852 99.174 337.863 100.42 337.863H237.667C238.525 337.863 239.316 337.364 239.693 336.593C251.1 313.264 251.339 304.413 239.731 285.168C239.325 284.496 238.59 284.08 237.805 284.08H100.42Z" stroke="#513513" stroke-width="7.52212"/>
<path d="M122.952 311.564C122.952 326.37 111.215 338.239 96.8984 338.239C82.582 338.239 70.8446 326.37 70.8446 311.564C70.8446 296.758 82.582 284.889 96.8984 284.889C111.215 284.889 122.952 296.758 122.952 311.564Z" fill="#7F6000" stroke="#513513" stroke-width="7.52212"/>
<path d="M55.8688 310.943C55.8688 326.164 44.0608 338.239 29.8149 338.239C15.569 338.239 3.76106 326.164 3.76106 310.943C3.76106 295.721 15.569 283.647 29.8149 283.647C44.0608 283.647 55.8688 295.721 55.8688 310.943Z" fill="#7F6000" stroke="#513513" stroke-width="7.52212"/>
<mask id="path-6-inside-1" fill="white">
<path fill-rule="evenodd" clip-rule="evenodd" d="M98.2865 284.832C104.268 279.309 108.034 271.277 108.034 262.337C108.034 245.68 94.963 232.177 78.8398 232.177C62.7165 232.177 49.646 245.68 49.646 262.337C49.646 271.277 53.4113 279.309 59.393 284.832H98.2865Z"/>
</mask>
<path fill-rule="evenodd" clip-rule="evenodd" d="M98.2865 284.832C104.268 279.309 108.034 271.277 108.034 262.337C108.034 245.68 94.963 232.177 78.8398 232.177C62.7165 232.177 49.646 245.68 49.646 262.337C49.646 271.277 53.4113 279.309 59.393 284.832H98.2865Z" fill="#7F6000"/>
<path d="M98.2865 284.832V292.354H101.228L103.389 290.359L98.2865 284.832ZM59.393 284.832L54.2902 290.359L56.4514 292.354H59.393V284.832ZM100.511 262.337C100.511 269.134 97.6563 275.176 93.1837 279.305L103.389 290.359C110.88 283.442 115.556 273.421 115.556 262.337H100.511ZM78.8398 239.699C90.5797 239.699 100.511 249.602 100.511 262.337H115.556C115.556 241.758 99.3464 224.655 78.8398 224.655V239.699ZM57.1681 262.337C57.1681 249.602 67.0998 239.699 78.8398 239.699V224.655C58.3331 224.655 42.1239 241.758 42.1239 262.337H57.1681ZM64.4958 279.305C60.0233 275.176 57.1681 269.134 57.1681 262.337H42.1239C42.1239 273.421 46.7993 283.442 54.2902 290.359L64.4958 279.305ZM59.393 292.354H98.2865V277.31H59.393V292.354Z" fill="#513513" mask="url(#path-6-inside-1)"/>
</svg>
