<svg width="91" height="91" viewBox="0 0 91 91" fill="none" xmlns="http://www.w3.org/2000/svg">
<path d="M15.3522 88.8243H74.9721C82.6116 88.8243 88.8243 82.6116 88.8243 74.9721V15.3522C88.8243 7.71269 82.6116 1.5 74.9721 1.5H15.3522C7.71269 1.5 1.5 7.71269 1.5 15.3522V74.9721C1.5 82.6116 7.71269 88.8243 15.3522 88.8243Z" fill="#513513" stroke="#513513" stroke-width="3"/>
<path d="M15.3522 88.8243H74.9721C82.6116 88.8243 88.8243 82.6116 88.8243 74.9721V15.3522C88.8243 7.71269 82.6116 1.5 74.9721 1.5H15.3522C7.71269 1.5 1.5 7.71269 1.5 15.3522V74.9721C1.5 82.6116 7.71269 88.8243 15.3522 88.8243ZM9.44088 15.3522C9.44088 12.0941 12.0941 9.44088 15.3522 9.44088H74.9721C78.2302 9.44088 80.8834 12.0941 80.8834 15.3522V74.9721C80.8834 78.2302 78.2302 80.8834 74.9721 80.8834H15.3522C12.0941 80.8834 9.44088 78.2302 9.44088 74.9721V15.3522Z" fill="#F5D2A5" stroke="#513513" stroke-width="3"/>
<path d="M45.1622 67.3961C57.4217 67.3961 67.3961 57.4217 67.3961 45.1622C67.3961 32.9026 57.4217 22.9282 45.1622 22.9282C32.9026 22.9282 22.9282 32.9026 22.9282 45.1622C22.9282 57.4217 32.9026 67.3961 45.1622 67.3961ZM45.1622 27.8691C54.6978 27.8691 62.4552 35.6265 62.4552 45.1622C62.4552 54.6978 54.6978 62.4552 45.1622 62.4552C35.6265 62.4552 27.8691 54.6978 27.8691 45.1622C27.8691 35.6265 35.6265 27.8691 45.1622 27.8691Z" fill="#F5D2A5"/>
<path d="M45.1622 67.3961C57.4217 67.3961 67.3961 57.4217 67.3961 45.1622C67.3961 32.9026 57.4217 22.9282 45.1622 22.9282C32.9026 22.9282 22.9282 32.9026 22.9282 45.1622C22.9282 57.4217 32.9026 67.3961 45.1622 67.3961ZM45.1622 27.8691C54.6978 27.8691 62.4552 35.6265 62.4552 45.1622C62.4552 54.6978 54.6978 62.4552 45.1622 62.4552C35.6265 62.4552 27.8691 54.6978 27.8691 45.1622C27.8691 35.6265 35.6265 27.8691 45.1622 27.8691Z" stroke="black"/>
<path d="M69.8666 27.8691C73.9531 27.8691 77.2779 24.5443 77.2779 20.4578C77.2779 16.3713 73.9531 13.0465 69.8666 13.0465C65.7801 13.0465 62.4553 16.3713 62.4553 20.4578C62.4553 24.5443 65.7801 27.8691 69.8666 27.8691ZM69.8666 17.9874C71.2285 17.9874 72.337 19.0959 72.337 20.4578C72.337 21.8198 71.2285 22.9283 69.8666 22.9283C68.5046 22.9283 67.3961 21.8198 67.3961 20.4578C67.3961 19.0959 68.5046 17.9874 69.8666 17.9874Z" fill="#F5D2A5"/>
<path d="M69.8666 27.8691C73.9531 27.8691 77.2779 24.5443 77.2779 20.4578C77.2779 16.3713 73.9531 13.0465 69.8666 13.0465C65.7801 13.0465 62.4553 16.3713 62.4553 20.4578C62.4553 24.5443 65.7801 27.8691 69.8666 27.8691ZM69.8666 17.9874C71.2285 17.9874 72.337 19.0959 72.337 20.4578C72.337 21.8198 71.2285 22.9283 69.8666 22.9283C68.5046 22.9283 67.3961 21.8198 67.3961 20.4578C67.3961 19.0959 68.5046 17.9874 69.8666 17.9874Z" stroke="black"/>
</svg>
