<svg width="641" height="410" viewBox="0 0 641 410" fill="none" xmlns="http://www.w3.org/2000/svg">
<path d="M108.307 108C107.599 108 107.122 107.266 107.389 106.609C123.97 65.8763 136.421 53.5756 162.78 48.2298C162.845 48.2166 162.912 48.2098 162.979 48.2098H602.138C602.242 48.2098 602.347 48.2267 602.446 48.2583C629.134 56.8385 634.883 71.5506 635.801 106.964C635.815 107.525 635.364 108 634.803 108H108.307Z" fill="#F0880D"/>
<path d="M231.017 24.5362C230.974 25.1121 231.432 25.6 232.01 25.6H508.205L508.826 25C507.352 15.3853 505.542 8.19862 493.82 5.03446C493.737 5.01186 493.648 5 493.561 5H247.101C247.006 5 246.909 5.01416 246.819 5.04077C234.271 8.72268 231.826 13.8345 231.017 24.5362Z" fill="#F0880D"/>
<path d="M508.205 25.6H232.01C231.432 25.6 230.974 25.1121 231.017 24.5362C231.826 13.8345 234.271 8.72268 246.819 5.04077C246.909 5.01416 247.006 5 247.101 5H493.561C493.648 5 493.737 5.01186 493.82 5.03446C505.542 8.19862 507.352 15.3853 508.826 25M508.205 25.6L508.826 25M508.205 25.6C508.187 25.4798 508.844 25.1195 508.826 25M635.801 106.964C634.883 71.5506 629.134 56.8385 602.446 48.2583C602.347 48.2267 602.242 48.2098 602.138 48.2098H162.979C162.912 48.2098 162.845 48.2166 162.78 48.2298C136.421 53.5756 123.97 65.8763 107.389 106.609C107.122 107.266 107.599 108 108.307 108H634.803C635.364 108 635.815 107.525 635.801 106.964Z" stroke="#513513" stroke-width="10"/>
<path d="M508.881 47.9351C509.446 47.9276 509.805 47.4553 509.779 46.8911L508.871 26.9545C508.847 26.4205 508.407 26 507.872 26H232.887C232.312 26 231.853 26.487 231.915 27.0593C232.885 35.9792 239.237 41.1653 250.726 46.1288C262.23 51.0993 492.275 48.1543 508.881 47.9351Z" fill="white" stroke="#513513" stroke-width="10"/>
<path d="M42.8293 273.313C42.9649 273.72 43.3484 274 43.7773 274H634.326C634.878 274 635.326 273.552 635.326 273V109C635.326 108.448 634.878 108 634.326 108H107.181C106.801 108 106.453 108.216 106.284 108.557L46.0598 230.5C37.0128 246.458 37.0652 256.027 42.8293 273.313Z" fill="white"/>
<path d="M334.864 360.032C334.839 359.469 335.292 359 335.856 359H375.694C376.295 359 376.761 359.527 376.681 360.123C375.2 371.144 372.481 376.795 356.055 380.943C355.907 380.98 355.744 380.983 355.596 380.951C339.475 377.484 335.425 372.409 334.864 360.032Z" fill="white"/>
<path d="M42.8293 273.313C42.9649 273.72 43.3484 274 43.7773 274H634.326C634.878 274 635.326 273.552 635.326 273V109C635.326 108.448 634.878 108 634.326 108H107.181C106.801 108 106.453 108.216 106.284 108.557L46.0598 230.5C37.0128 246.458 37.0652 256.027 42.8293 273.313Z" stroke="#513513" stroke-width="10"/>
<path d="M334.864 360.032C334.839 359.469 335.292 359 335.856 359H375.694C376.295 359 376.761 359.527 376.681 360.123C375.2 371.144 372.481 376.795 356.055 380.943C355.907 380.98 355.744 380.983 355.596 380.951C339.475 377.484 335.425 372.409 334.864 360.032Z" stroke="#513513" stroke-width="10"/>
<rect x="99.8259" y="143" width="123" height="86" rx="25" fill="#ADC222" stroke="#513513" stroke-width="10"/>
<rect x="246.826" y="143" width="123" height="86" rx="25" fill="#ADC222" stroke="#513513" stroke-width="10"/>
<rect x="537.826" y="134" width="61" height="98" rx="21" fill="#ADC222" stroke="#513513" stroke-width="10"/>
<path d="M399.826 271.5C399.826 272.605 400.721 273.5 401.826 273.5H494.826C495.931 273.5 496.826 272.605 496.826 271.5V109.39C496.826 109.132 496.775 108.874 496.678 108.636C492.675 98.8133 489.497 93.721 478.215 88.6728C477.962 88.5594 477.683 88.5 477.405 88.5H417.668C417.441 88.5 417.213 88.5393 417 88.6156C406.975 92.2035 402.936 96.3974 399.884 108.763C399.846 108.918 399.826 109.081 399.826 109.24V271.5Z" fill="#6F3E36"/>
<path d="M45.759 273.509C44.2263 273.505 43.259 275.156 44.0116 276.491L57.2522 299.982C57.6066 300.611 58.2725 301 58.9945 301H170.326C171.43 301 172.326 301.895 172.326 303V343.5C172.326 344.605 173.221 345.5 174.326 345.5H303.043C303.825 345.5 304.539 345.034 304.868 344.324C316.969 318.175 325.916 307.574 354.826 306.5C384.562 308.51 395.248 317.893 406.307 344.252C406.621 345 407.355 345.5 408.165 345.5H602.937C603.194 345.5 603.455 345.448 603.693 345.351C627.181 335.762 631.165 325.971 633.826 306.5L635.226 277.09C635.281 275.951 634.374 274.998 633.234 274.995L45.759 273.509Z" fill="#6F3E36"/>
<path d="M310.084 361.721C309.936 360.541 310.863 359.5 312.052 359.5H332.484C333.525 359.5 334.387 360.303 334.5 361.338C335.67 372.047 339.211 377.06 354.361 381.369C354.662 381.455 354.992 381.468 355.298 381.406C369.514 378.531 374.251 373.77 376.54 361.191C376.716 360.222 377.551 359.5 378.536 359.5H398.892C400.152 359.5 401.098 360.658 400.84 361.892C394.77 390.878 385.52 402.98 355.091 404.983C354.918 404.994 354.736 404.982 354.566 404.948C325.105 399.075 313.661 390.342 310.084 361.721Z" fill="#6F3E36"/>
<path d="M399.826 271.5C399.826 272.605 400.721 273.5 401.826 273.5H494.826C495.931 273.5 496.826 272.605 496.826 271.5V109.39C496.826 109.132 496.775 108.874 496.678 108.636C492.675 98.8133 489.497 93.721 478.215 88.6728C477.962 88.5594 477.683 88.5 477.405 88.5H417.668C417.441 88.5 417.213 88.5393 417 88.6156C406.975 92.2035 402.936 96.3974 399.884 108.763C399.846 108.918 399.826 109.081 399.826 109.24V271.5Z" stroke="#513513" stroke-width="10"/>
<path d="M45.759 273.509C44.2263 273.505 43.259 275.156 44.0116 276.491L57.2522 299.982C57.6066 300.611 58.2725 301 58.9945 301H170.326C171.43 301 172.326 301.895 172.326 303V343.5C172.326 344.605 173.221 345.5 174.326 345.5H303.043C303.825 345.5 304.539 345.034 304.868 344.324C316.969 318.175 325.916 307.574 354.826 306.5C384.562 308.51 395.248 317.893 406.307 344.252C406.621 345 407.355 345.5 408.165 345.5H602.937C603.194 345.5 603.455 345.448 603.693 345.351C627.181 335.762 631.165 325.971 633.826 306.5L635.226 277.09C635.281 275.951 634.374 274.998 633.234 274.995L45.759 273.509Z" stroke="#513513" stroke-width="10"/>
<path d="M310.084 361.721C309.936 360.541 310.863 359.5 312.052 359.5H332.484C333.525 359.5 334.387 360.303 334.5 361.338C335.67 372.047 339.211 377.06 354.361 381.369C354.662 381.455 354.992 381.468 355.298 381.406C369.514 378.531 374.251 373.77 376.54 361.191C376.716 360.222 377.551 359.5 378.536 359.5H398.892C400.152 359.5 401.098 360.658 400.84 361.892C394.77 390.878 385.52 402.98 355.091 404.983C354.918 404.994 354.736 404.982 354.566 404.948C325.105 399.075 313.661 390.342 310.084 361.721Z" stroke="#513513" stroke-width="10"/>
<path d="M172.826 304.5C172.826 302.843 171.483 301.5 169.826 301.5H21.0586C20.5772 301.5 20.0985 301.617 19.6736 301.843C9.8018 307.104 6.82269 311.857 5.32584 322.5C3.55856 335.31 9.07196 339.117 19.6361 345.11C20.0859 345.365 20.5976 345.5 21.1148 345.5H169.826C171.483 345.5 172.826 344.157 172.826 342.5V304.5Z" fill="#F8DB03"/>
<path d="M305.512 357.454C305.981 358.157 306.808 358.5 307.653 358.5H401.442C402.019 358.5 402.588 358.337 403.064 358.01C407.113 355.235 408.332 352.726 405.826 345.5C390.727 309.694 378.259 309.446 356.326 307.5C324.548 307.901 317.326 314.093 306.441 337.749C306.366 337.913 306.274 338.073 306.174 338.223C302.79 343.296 302.172 352.454 305.512 357.454Z" fill="#F8DB03"/>
<path d="M172.826 304.5C172.826 302.843 171.483 301.5 169.826 301.5H21.0586C20.5772 301.5 20.0985 301.617 19.6736 301.843C9.8018 307.104 6.82269 311.857 5.32584 322.5C3.55856 335.31 9.07196 339.117 19.6361 345.11C20.0859 345.365 20.5976 345.5 21.1148 345.5H169.826C171.483 345.5 172.826 344.157 172.826 342.5V304.5Z" stroke="#513513" stroke-width="10"/>
<path d="M305.512 357.454C305.981 358.157 306.808 358.5 307.653 358.5H401.442C402.019 358.5 402.588 358.337 403.064 358.01C407.113 355.235 408.332 352.726 405.826 345.5C390.727 309.694 378.259 309.446 356.326 307.5C324.548 307.901 317.326 314.093 306.441 337.749C306.366 337.913 306.274 338.073 306.174 338.223C302.79 343.296 302.172 352.454 305.512 357.454Z" stroke="#513513" stroke-width="10"/>
<rect x="411.826" y="110" width="70" height="50" rx="15" fill="#F8DB03" stroke="#513513" stroke-width="10"/>
</svg>
