<svg width="320" height="345" viewBox="0 0 320 345" fill="none" xmlns="http://www.w3.org/2000/svg">
<rect x="149" y="227" width="21.3484" height="114.189" rx="3.46706" fill="#644117" stroke="#513513" stroke-width="6.93413"/>
<path d="M18.2032 45.9747C13.0158 29.7619 23.7209 12.8277 40.0996 11.5122C131.873 4.14138 194.021 4.28707 276.772 11.0845C293.853 12.4876 304.489 30.8519 297.903 47.4796C285.519 78.7501 278.835 106.061 278.065 132.709C277.295 159.394 282.463 185.123 293.395 213.22C300.632 231.82 287.495 252.309 268.558 251.997C189.231 250.689 128.66 250.927 45.406 252.231C27.6141 252.509 14.8354 234.384 20.3552 216.758C39.183 156.639 38.5938 109.705 18.2032 45.9747Z" fill="#94A71C" stroke="#513513" stroke-width="10"/>
</svg>
