<svg width="300" height="374" viewBox="0 0 300 374" fill="none" xmlns="http://www.w3.org/2000/svg">
<rect x="144.006" y="256.209" width="21.3484" height="114.189" rx="3.46706" fill="#644117" stroke="#513513" stroke-width="6.93413"/>
<path fill-rule="evenodd" clip-rule="evenodd" d="M198.618 52.6545C198.618 53.256 199.295 53.627 199.802 53.3036C207.348 48.4919 216.311 45.7038 225.924 45.7038C252.795 45.7038 274.578 67.4872 274.578 94.3583C274.578 102.781 272.438 110.703 268.672 117.612C267.639 119.508 268.364 121.94 270.266 122.961C285.541 131.168 295.927 147.296 295.927 165.851C295.927 188.447 280.523 207.446 259.643 212.919C257.421 213.501 256.132 215.935 256.899 218.1C258.703 223.185 259.684 228.66 259.684 234.364C259.684 261.235 237.901 283.018 211.03 283.018C205.644 283.018 200.463 282.143 195.62 280.528C193.947 279.97 192.09 280.633 191.149 282.125C182.534 295.787 167.309 304.863 149.963 304.863C129.645 304.863 112.235 292.409 104.953 274.717C103.948 272.275 100.705 271.398 98.6083 273.005C90.4129 279.286 80.1614 283.018 69.0381 283.018C42.167 283.018 20.3837 261.235 20.3837 234.364C20.3837 227.648 21.7445 221.249 24.2055 215.429C24.8833 213.827 24.3897 211.95 23.0105 210.889C11.4499 201.994 4 188.019 4 172.305C4 152.959 15.2908 136.25 31.6423 128.409C33.607 127.467 34.4389 125.036 33.4623 123.089C30.1766 116.536 28.3272 109.138 28.3272 101.309C28.3272 74.4378 50.1106 52.6544 76.9817 52.6544C83.6155 52.6544 89.9392 53.9821 95.7017 56.3862C98.2339 57.4426 101.309 55.3982 101.309 52.6545C101.309 25.7833 123.092 4 149.963 4C176.835 4 198.618 25.7833 198.618 52.6545Z" fill="#94A71C"/>
<path d="M31.6423 128.409L33.1415 131.535L31.6423 128.409ZM24.2055 215.429L21.0122 214.079L24.2055 215.429ZM23.0105 210.889L25.1248 208.141L23.0105 210.889ZM199.802 53.3036L197.938 50.3802L199.802 53.3036ZM104.953 274.717L108.159 273.397L104.953 274.717ZM98.6083 273.005L100.717 275.757L98.6083 273.005ZM259.643 212.919L258.764 209.565L259.643 212.919ZM256.899 218.1L253.632 219.258L256.899 218.1ZM195.62 280.528L196.718 277.239L195.62 280.528ZM191.149 282.125L194.082 283.974L191.149 282.125ZM268.672 117.612L271.716 119.272L268.672 117.612ZM270.266 122.961L271.906 119.907L270.266 122.961ZM225.924 42.2367C215.631 42.2367 206.025 45.224 197.938 50.3802L201.666 56.227C208.672 51.7598 216.99 49.1709 225.924 49.1709V42.2367ZM278.046 94.3583C278.046 65.5723 254.71 42.2367 225.924 42.2367V49.1709C250.88 49.1709 271.111 69.402 271.111 94.3583H278.046ZM271.716 119.272C275.753 111.867 278.046 103.375 278.046 94.3583H271.111C271.111 102.187 269.124 109.54 265.628 115.953L271.716 119.272ZM299.394 165.851C299.394 145.969 288.261 128.694 271.906 119.907L268.625 126.016C282.82 133.642 292.46 148.623 292.46 165.851H299.394ZM260.522 216.272C282.889 210.41 299.394 190.062 299.394 165.851H292.46C292.46 186.832 278.157 204.482 258.764 209.565L260.522 216.272ZM263.151 234.364C263.151 228.26 262.1 222.394 260.167 216.941L253.632 219.258C255.305 223.977 256.217 229.06 256.217 234.364H263.151ZM211.03 286.486C239.816 286.486 263.151 263.15 263.151 234.364H256.217C256.217 259.32 235.986 279.551 211.03 279.551V286.486ZM194.523 283.817C199.715 285.549 205.266 286.486 211.03 286.486V279.551C206.022 279.551 201.211 278.738 196.718 277.239L194.523 283.817ZM149.963 308.33C168.548 308.33 184.858 298.601 194.082 283.974L188.216 280.275C180.21 292.973 166.069 301.396 149.963 301.396V308.33ZM101.747 276.037C109.546 294.982 128.192 308.33 149.963 308.33V301.396C131.098 301.396 114.925 289.835 108.159 273.397L101.747 276.037ZM69.0381 286.486C80.9503 286.486 91.9379 282.485 100.717 275.757L96.4993 270.253C88.8879 276.086 79.3726 279.551 69.0381 279.551V286.486ZM16.9166 234.364C16.9166 263.15 40.2522 286.486 69.0381 286.486V279.551C44.0818 279.551 23.8507 259.32 23.8507 234.364H16.9166ZM21.0122 214.079C18.3738 220.319 16.9166 227.176 16.9166 234.364H23.8507C23.8507 228.12 25.1152 222.18 27.3988 216.78L21.0122 214.079ZM25.1248 208.141C14.3804 199.874 7.46706 186.897 7.46706 172.305H0.532936C0.532936 189.141 8.51939 204.113 20.8962 213.637L25.1248 208.141ZM7.46706 172.305C7.46706 154.343 17.9471 138.822 33.1415 131.535L30.1431 125.283C12.6346 133.679 0.532936 151.575 0.532936 172.305H7.46706ZM24.8602 101.309C24.8602 109.69 26.8409 117.619 30.363 124.643L36.5615 121.534C33.5122 115.453 31.7943 108.587 31.7943 101.309H24.8602ZM76.9817 49.1874C48.1958 49.1874 24.8602 72.523 24.8602 101.309H31.7943C31.7943 76.3526 52.0254 56.1215 76.9817 56.1215V49.1874ZM97.0366 53.1864C90.8587 50.609 84.0818 49.1874 76.9817 49.1874V56.1215C83.1492 56.1215 89.0197 57.3552 94.3667 59.5859L97.0366 53.1864ZM149.963 0.532936C121.178 0.532936 97.8419 23.8685 97.8419 52.6545H104.776C104.776 27.6982 125.007 7.46706 149.963 7.46706V0.532936ZM202.085 52.6545C202.085 23.8685 178.749 0.532936 149.963 0.532936V7.46706C174.92 7.46706 195.151 27.6982 195.151 52.6545H202.085ZM94.3667 59.5859C96.8737 60.6318 99.4912 60.0854 101.375 58.832C103.26 57.5784 104.776 55.3741 104.776 52.6545H97.8419C97.8419 52.6786 97.8208 52.8683 97.5345 53.0587C97.248 53.2493 97.0618 53.1969 97.0366 53.1864L94.3667 59.5859ZM33.1415 131.535C36.8529 129.755 38.4079 125.217 36.5615 121.534L30.363 124.643C30.4074 124.731 30.4252 124.856 30.3749 125.003C30.3246 125.151 30.2333 125.24 30.1431 125.283L33.1415 131.535ZM27.3988 216.78C28.6904 213.725 27.7545 210.164 25.1248 208.141L20.8962 213.637C20.9559 213.683 21.0033 213.75 21.0265 213.838C21.0496 213.926 21.0418 214.009 21.0122 214.079L27.3988 216.78ZM195.151 52.6545C195.151 55.9943 198.852 58.0213 201.666 56.227L197.938 50.3802C199.738 49.2326 202.085 50.5176 202.085 52.6545H195.151ZM108.159 273.397C106.287 268.849 100.41 267.256 96.4993 270.253L100.717 275.757C100.809 275.686 101.002 275.613 101.286 275.69C101.57 275.766 101.702 275.928 101.747 276.037L108.159 273.397ZM258.764 209.565C254.579 210.661 252.185 215.179 253.632 219.258L260.167 216.941C260.132 216.842 260.129 216.699 260.214 216.538C260.299 216.378 260.419 216.299 260.522 216.272L258.764 209.565ZM196.718 277.239C193.53 276.176 190.009 277.432 188.216 280.275L194.082 283.974C194.123 283.909 194.188 283.854 194.276 283.822C194.364 283.791 194.45 283.792 194.523 283.817L196.718 277.239ZM265.628 115.953C263.674 119.538 265.03 124.084 268.625 126.016L271.906 119.907C271.819 119.86 271.734 119.769 271.691 119.624C271.648 119.48 271.67 119.358 271.716 119.272L265.628 115.953Z" fill="#513513"/>
</svg>
