<svg width="290" height="381" viewBox="0 0 290 381" fill="none" xmlns="http://www.w3.org/2000/svg">
<path d="M99.9421 163.41C87.2039 172.759 68.9412 191.596 69.6339 192.8C71.0375 195.24 83.1184 206.909 90.9639 210.344L105.247 165.655L99.9421 163.41Z" fill="#644117" stroke="#513513" stroke-width="3.84378"/>
<path d="M188.349 163.612C201.403 172.515 220.306 190.71 219.655 191.937C218.336 194.424 206.666 206.503 198.944 210.207L183.125 166.038L188.349 163.612Z" fill="#644117" stroke="#513513" stroke-width="3.84378"/>
<path d="M87.2937 61.1632C87.2937 61.0237 87.2781 60.8819 87.2473 60.7458C86.2429 56.3102 85.1653 55.1047 80.6653 54.5446C79.9733 54.4585 79.2958 54.7807 78.8948 55.3511C76.468 58.8029 74.1379 61.7409 72.5403 65.4426C36.9376 129.558 26.4806 151.029 3.58115 164.183C3.09954 164.46 2.74924 164.928 2.64425 165.474C1.01607 173.932 2.65292 177.28 5.55045 182.445C5.87917 183.031 6.49732 183.405 7.16906 183.42C23.9188 183.81 33.2642 180.205 48.0737 168.109C48.8046 167.512 49.8586 167.531 50.6029 168.111C53.9816 170.745 56.2932 171.113 59.9554 171.144C60.2216 171.146 60.4896 171.089 60.7333 170.982C73.8966 165.183 79.072 160.195 86.8478 150.868C87.1348 150.524 87.2937 150.087 87.2937 149.638V61.1632Z" fill="#9E9B90"/>
<path d="M201.915 67.6932C201.915 67.5536 201.93 67.4118 201.961 67.2757C202.966 62.8401 204.043 61.6347 208.543 61.0746C209.235 60.9885 209.913 61.3107 210.314 61.8811C212.741 65.3329 215.071 68.2709 216.668 71.9726C252.271 136.088 262.728 157.559 285.627 170.713C286.109 170.99 286.459 171.458 286.564 172.004C288.193 180.462 286.556 183.81 283.658 188.975C283.329 189.561 282.711 189.935 282.04 189.95C265.29 190.34 255.944 186.735 241.135 174.639C240.404 174.042 239.35 174.061 238.606 174.641C235.227 177.275 232.915 177.643 229.253 177.674C228.987 177.676 228.719 177.619 228.475 177.512C215.312 171.713 210.137 166.725 202.361 157.398C202.074 157.054 201.915 156.617 201.915 156.168V67.6932Z" fill="#9E9B90"/>
<path d="M87.2937 61.1632C87.2937 61.0237 87.2781 60.8819 87.2473 60.7458C86.2429 56.3102 85.1653 55.1047 80.6653 54.5446C79.9733 54.4585 79.2958 54.7807 78.8948 55.3511C76.468 58.8029 74.1379 61.7409 72.5403 65.4426C36.9376 129.558 26.4806 151.029 3.58115 164.183C3.09954 164.46 2.74924 164.928 2.64425 165.474C1.01607 173.932 2.65292 177.28 5.55045 182.445C5.87917 183.031 6.49732 183.405 7.16906 183.42C23.9188 183.81 33.2642 180.205 48.0737 168.109C48.8046 167.512 49.8586 167.531 50.6029 168.111C53.9816 170.745 56.2932 171.113 59.9554 171.144C60.2216 171.146 60.4896 171.089 60.7333 170.982C73.8966 165.183 79.072 160.195 86.8478 150.868C87.1348 150.524 87.2937 150.087 87.2937 149.638V61.1632Z" stroke="#513513" stroke-width="3.84378"/>
<path d="M201.915 67.6932C201.915 67.5536 201.93 67.4118 201.961 67.2757C202.966 62.8401 204.043 61.6347 208.543 61.0746C209.235 60.9885 209.913 61.3107 210.314 61.8811C212.741 65.3329 215.071 68.2709 216.668 71.9726C252.271 136.088 262.728 157.559 285.627 170.713C286.109 170.99 286.459 171.458 286.564 172.004C288.193 180.462 286.556 183.81 283.658 188.975C283.329 189.561 282.711 189.935 282.04 189.95C265.29 190.34 255.944 186.735 241.135 174.639C240.404 174.042 239.35 174.061 238.606 174.641C235.227 177.275 232.915 177.643 229.253 177.674C228.987 177.676 228.719 177.619 228.475 177.512C215.312 171.713 210.137 166.725 202.361 157.398C202.074 157.054 201.915 156.617 201.915 156.168V67.6932Z" stroke="#513513" stroke-width="3.84378"/>
<path d="M209.137 111.984C209.137 125.821 203.667 142.066 195.69 151.943C190.576 158.276 182.55 162.783 173.281 165.701C164.04 168.611 153.78 169.872 144.481 169.872C135.24 169.872 124.273 168.239 114.29 164.935C104.255 161.615 95.5256 156.711 90.42 150.388C82.5893 140.691 79.8255 126.136 79.8255 111.984C79.8255 108.788 79.7192 105.46 79.6108 102.067C79.3939 95.2758 79.1686 88.2238 79.7707 81.4529C80.6681 71.3613 83.3621 62.952 89.9614 58.0739C95.4986 53.9809 105.334 50.6959 115.933 48.4454C126.441 46.2142 137.267 45.0862 144.481 45.0862C151.701 45.0862 163.054 46.2157 174.089 48.4502C185.235 50.707 195.56 53.9968 201.075 58.0739C207.602 62.8984 209.832 71.212 210.221 81.3277C210.413 86.3312 210.151 91.5938 209.831 96.8371C209.785 97.5878 209.738 98.3391 209.691 99.0893C209.413 103.532 209.137 107.938 209.137 111.984Z" fill="#9E9B90" stroke="#513513" stroke-width="4.99692"/>
<path d="M207.277 61.1574C209.058 64.205 212.84 70.4925 212.785 80.7473C220.456 77.5807 225.028 75.9121 229.789 69.2498C230.038 66.3368 229.821 64.8172 228.108 62.5289C221.516 60.5299 214.561 60.459 207.277 61.1574Z" fill="#412A0F"/>
<path d="M77.0912 81.7676C68.6364 77.3255 65.6467 77.977 60.0925 69.4897C59.4443 66.6997 59.677 65.1452 61.0526 62.5288C68.9026 59.7918 74.9116 60.6478 82.8046 61.7696C81.4702 64.4314 77.9244 69.1797 77.0912 81.7676Z" fill="#412A0F"/>
<path d="M207.277 61.1574C209.058 64.205 212.84 70.4925 212.785 80.7473C220.456 77.5807 225.028 75.9121 229.789 69.2498C230.038 66.3368 229.821 64.8172 228.108 62.5289C221.516 60.5299 214.561 60.459 207.277 61.1574Z" stroke="#513513" stroke-width="4.99692"/>
<path d="M77.0912 81.7676C68.6364 77.3255 65.6467 77.977 60.0925 69.4897C59.4443 66.6997 59.677 65.1452 61.0526 62.5288C68.9026 59.7918 74.9116 60.6478 82.8046 61.7696C81.4702 64.4314 77.9244 69.1797 77.0912 81.7676Z" stroke="#513513" stroke-width="4.99692"/>
<path d="M144.895 63.4148C144.999 63.4612 145.122 63.4589 145.224 63.4091C169.085 51.781 183.401 49.2405 209.535 47.8913C209.594 47.8883 209.657 47.8996 209.711 47.9237C218.954 51.983 222.908 55.3115 227.644 61.9977C227.861 62.3052 227.548 62.7099 227.193 62.5838C221.119 60.4263 217.189 60.3117 210.407 60.8438C210.368 60.8469 210.328 60.8563 210.291 60.871C185.842 70.7689 171.751 75.4214 145.125 79.8006C145.083 79.8076 145.038 79.8074 144.996 79.8002C118.8 75.2899 105.13 70.8303 81.4878 61.5816C81.466 61.5731 81.4426 61.5663 81.4196 61.5619C74.1107 60.1563 69.7578 60.25 62.4011 62.0159C62.0433 62.1018 61.7762 61.6851 62.0084 61.3997C67.1265 55.1079 70.9375 51.9225 79.2067 47.9289C79.2635 47.9015 79.3288 47.888 79.3918 47.8906C108.275 49.0759 122.14 53.2594 144.895 63.4148Z" fill="#644117" stroke="#513513" stroke-width="4.99692"/>
<path d="M90.3354 28.2036C88.8459 28.5248 81.6105 40.9292 80.0144 47.4064C106.338 48.6177 120.599 52.6001 145.061 63.4888C168.902 52.8498 183.129 49.0701 209.627 47.4064C206.886 39.8689 204.768 35.7053 199.546 28.4436C176.396 30.3767 164.355 33.2642 145.061 42.6057C125.91 33.5936 114.339 29.8125 90.3354 28.2036Z" fill="#6AB032" stroke="#513513" stroke-width="4.99692"/>
<path d="M92.0156 28.2037C107.036 13.1049 115.799 4.97667 144.1 3C171.503 5.9101 182.848 11.7701 197.386 28.2037C175.658 30.2003 164.167 33.1254 145.301 42.6058C125.966 33.7166 114.657 29.7717 92.0156 28.2037Z" fill="#644117" stroke="#513513" stroke-width="4.99692"/>
<path d="M174.015 94.8079C176.039 83.778 177.712 79.2642 182.454 78.1771C182.718 78.1167 182.996 78.1199 183.25 78.2138C185.754 79.1408 186.338 82.8785 185.477 95.6436" stroke="#513513" stroke-width="4.99692" stroke-linecap="round"/>
<path d="M98.9246 96.0323C100.949 85.0023 102.621 80.4886 107.364 79.4015C107.627 79.3411 107.906 79.3443 108.16 79.4382C110.664 80.3651 111.247 84.1028 110.386 96.868" stroke="#513513" stroke-width="4.99692" stroke-linecap="round"/>
<path d="M128.676 131.521C128.282 139.693 130.947 143.562 139.497 149.533C142.775 150.456 144.537 150.69 147.374 149.985C154.289 148.37 157.435 146.588 160.935 140.88L128.676 131.521Z" fill="#655D5D" stroke="#513513" stroke-width="3.84378"/>
<path d="M157.631 91.0756C166.261 101.29 172.521 104.877 184.362 110.257C191.561 113.576 195.178 113.74 201.502 113.522L206.604 111.482C208.365 104.565 210.701 103.058 216.194 102.707C222.02 103.241 222.902 104.68 224.152 107.4C223.257 111.569 222.717 115.009 219.785 117.693C219.513 117.942 219.679 118.407 220.045 118.377C224.011 118.055 226.686 116.087 229.661 118.42C235.314 121.626 231.803 124.371 230.477 127.194C228.17 130.346 226.115 131.731 221.091 133.52C198.074 136.835 185.355 138.001 162.733 139.846C139.621 137.745 133.261 134.866 126.208 128.623L157.631 91.0756Z" fill="#9E9B90" stroke="#513513" stroke-width="4.99692" stroke-linecap="round"/>
<path d="M193.604 120.399C193.524 124.862 192.965 127.289 191.579 131.559M186.794 117.654C187.205 123.38 186.432 126.391 184.034 131.559M179.064 115.642C178.874 121.958 177.843 125.438 174.831 131.559" stroke="#513513" stroke-width="4.99692" stroke-linecap="round"/>
<path d="M87.0897 267.463H196.888C202.914 298.714 204.886 322.38 212.785 358.316H181.731C165.646 331.446 156.587 316.955 147.349 288.691C143.018 289.081 140.59 289.056 136.259 288.691C136.761 315.573 134.679 331.81 132.192 358.316L100.029 358.882C91.1697 323.898 88.6513 303.82 87.0897 267.463Z" fill="#644117"/>
<path d="M87.0897 267.463C88.5684 267.463 161.398 267.463 196.888 267.463M87.0897 267.463C88.6513 303.82 91.1697 323.898 100.029 358.882L132.192 358.316C134.679 331.81 136.761 315.573 136.259 288.691C140.59 289.056 143.018 289.081 147.349 288.691C156.587 316.955 165.646 331.446 181.731 358.316H212.785C204.886 322.38 202.914 298.714 196.888 267.463M87.0897 267.463H196.888" stroke="#513513" stroke-width="3.84378"/>
<path d="M153.112 83.4076L162.194 90.3135L144.336 111.635L126.478 132.956L118.105 125.028L153.112 83.4076Z" fill="#9E9B90"/>
<path d="M108.887 164.823L107.106 164.264L106.495 166.028C93.7021 202.974 86.3123 227.298 78.2678 267.279L77.9723 268.747L79.3246 269.392C99.4992 279.015 111.326 281.991 132.668 284.799L133.928 284.965L134.574 283.871C138.528 277.174 140.822 272.846 143.415 266.843L151.242 283.703L151.836 284.983L153.235 284.8C176.39 281.769 188.307 278.288 207.669 269.404L209.025 268.782L208.758 267.314C201.663 228.326 194.266 203.622 181.549 166.041L180.937 164.233L179.125 164.832C165.38 169.379 155.201 171.649 144.824 171.676C134.441 171.702 123.717 169.482 108.887 164.823Z" fill="#B59670" stroke="#513513" stroke-width="3.84378"/>
<path d="M113.781 171.276C119.481 173.973 124.5 176.349 131.899 177.502C130.38 178.505 129.146 179.536 128.111 180.659C126.016 182.931 124.865 185.441 123.721 188.413L122.273 192.17L126.104 190.933C134.874 188.101 139.583 186.035 145.689 182.263C146.912 184.622 148.579 186.318 150.841 187.597C153.601 189.158 157.178 190.049 161.571 190.983L164.416 191.589L163.857 188.735C163.384 186.317 162.849 184.263 161.759 182.085C161.074 180.718 160.19 179.34 159.014 177.807C163.872 177.219 167.541 176.114 170.761 174.651C173.709 173.31 176.288 171.655 178.948 169.947C179.805 169.397 180.67 168.842 181.559 168.29L180.165 164.773C153.267 170.2 138.771 170.197 108.652 164.766L107.55 168.422C109.79 169.387 111.826 170.35 113.781 171.276Z" fill="#F75757" stroke="#513513" stroke-width="3.84378"/>
<path d="M113.023 226.978C120.281 226.978 126.165 221.094 126.165 213.835C126.165 206.577 120.281 200.692 113.023 200.692C105.764 200.692 99.88 206.577 99.88 213.835C99.88 221.094 105.764 226.978 113.023 226.978Z" fill="#513513" stroke="#FBD19F" stroke-width="3.84378"/>
<path fill-rule="evenodd" clip-rule="evenodd" d="M117.814 215.389L113.45 207.793L109.086 215.389H110.872L107.848 219.23H119.06L116.036 215.389H117.814Z" fill="#FBD19F"/>
<path d="M144.512 211.738C146.068 211.738 147.33 210.476 147.33 208.919C147.33 207.362 146.068 206.1 144.512 206.1C142.955 206.1 141.693 207.362 141.693 208.919C141.693 210.476 142.955 211.738 144.512 211.738Z" fill="#775122" stroke="#513513" stroke-width="1.92189"/>
<path d="M144.449 227.655C146.006 227.655 147.268 226.393 147.268 224.836C147.268 223.279 146.006 222.017 144.449 222.017C142.892 222.017 141.63 223.279 141.63 224.836C141.63 226.393 142.892 227.655 144.449 227.655Z" fill="#775122" stroke="#513513" stroke-width="1.92189"/>
<path d="M144.449 243.98C146.006 243.98 147.268 242.718 147.268 241.161C147.268 239.604 146.006 238.342 144.449 238.342C142.892 238.342 141.63 239.604 141.63 241.161C141.63 242.718 142.892 243.98 144.449 243.98Z" fill="#775122" stroke="#513513" stroke-width="1.92189"/>
<rect x="155.098" y="203.243" width="30.897" height="4.77873" fill="#794C17" stroke="#513513" stroke-width="1.92189"/>
<rect x="155.098" y="214.671" width="30.9066" height="4.89484" fill="#6AB032" stroke="#513513" stroke-width="1.92189"/>
<path d="M71.2318 197.022C62.8277 206.379 59.0151 212.324 53.6387 224.026C46.8028 226.025 44.4085 228.516 41.5277 234.285C40.1631 240.328 42.323 242.735 46.8378 246.805C55.34 251.744 57.6652 249.831 62.6994 248.119C65.3109 245.166 66.2919 243.273 67.6942 239.728C67.4945 236.965 67.2356 235.442 65.3863 232.985L85.913 210.114L71.2318 197.022Z" fill="#9E9B90" stroke="#513513" stroke-width="3.84378"/>
<path d="M217.424 197.022C225.828 206.379 229.641 212.324 235.017 224.026C241.853 226.025 244.247 228.516 247.128 234.285C248.493 240.328 246.333 242.735 241.818 246.805C233.316 251.744 230.991 249.831 225.957 248.119C223.345 245.166 222.364 243.273 220.962 239.728C221.161 236.965 221.42 235.442 223.27 232.985L202.743 210.114L217.424 197.022Z" fill="#9E9B90" stroke="#513513" stroke-width="3.84378"/>
<path d="M84.913 377.766L86.143 376.314L84.913 377.766C85.6471 378.388 86.5566 378.653 87.4168 378.631L128.857 377.587C130.98 377.534 132.657 375.77 132.603 373.648L132.32 362.407C132.266 360.284 130.503 358.607 128.381 358.661L103.872 359.278C103.319 359.292 102.774 359.426 102.278 359.669L103.121 361.389L102.278 359.669C95.1892 363.141 91.161 365.551 85.3999 371.276C85.3999 371.276 85.397 371.279 85.3908 371.284C85.3837 371.289 85.374 371.296 85.3617 371.304L86.3903 372.928L85.3617 371.304C84.8264 371.643 84.3045 372.031 83.8963 372.492C83.4739 372.97 83.0862 373.628 83.0479 374.463C83.01 375.289 83.329 375.969 83.6755 376.466C84.0143 376.952 84.4618 377.383 84.913 377.766Z" fill="#644117" stroke="#513513" stroke-width="3.84378"/>
<path d="M85.1961 370.888L85.0883 370.965L84.9922 371.057C84.0697 371.938 83.1488 373.028 83.0535 374.395C82.9496 375.885 83.8583 376.945 84.5329 377.605C85.2956 378.352 86.2954 378.66 87.2195 378.636L128.615 377.594C129.883 377.562 130.781 376.745 131.249 376.201C131.77 375.596 132.169 374.862 132.386 374.207C132.786 372.998 132.471 371.797 131.694 370.962C130.961 370.175 129.908 369.795 128.864 369.831C125.351 369.951 120.939 370.152 116.579 370.35C114.081 370.464 111.6 370.576 109.315 370.673C106.164 370.806 103.389 370.908 101.424 370.941C100.893 370.95 100.433 370.954 100.046 370.952C99.9741 370.628 99.8869 370.276 99.787 369.909C99.443 368.645 98.906 367.053 98.217 365.758C97.0915 363.641 94.5922 363.663 93.1409 364.741C91.9269 365.643 90.8807 366.482 89.8328 367.322C89.6725 367.451 89.5121 367.579 89.3512 367.708C88.134 368.683 86.8539 369.693 85.1961 370.888Z" fill="#67AD30" stroke="#513513" stroke-width="3.84378"/>
<path d="M212.168 359.981C211.664 359.757 211.114 359.644 210.561 359.651L186.047 359.958C183.924 359.984 182.225 361.727 182.251 363.849L182.392 375.093C182.418 377.216 184.16 378.915 186.283 378.889L227.733 378.37C228.594 378.359 229.493 378.06 230.203 377.411C230.639 377.012 231.07 376.564 231.391 376.066C231.718 375.556 232.011 374.864 231.942 374.04C231.873 373.207 231.46 372.564 231.02 372.103C230.595 371.657 230.059 371.289 229.511 370.971C229.499 370.963 229.489 370.957 229.481 370.951L212.168 359.981ZM212.168 359.981C219.383 363.184 223.499 365.44 229.472 370.944L212.168 359.981Z" fill="#644117" stroke="#513513" stroke-width="3.84378"/>
<path d="M229.661 370.548L229.772 370.621L229.871 370.709C230.827 371.555 231.788 372.61 231.934 373.972C232.094 375.457 231.226 376.55 230.577 377.236C229.843 378.011 228.856 378.356 227.931 378.367L186.525 378.885C185.257 378.901 184.33 378.119 183.841 377.593C183.297 377.008 182.871 376.289 182.63 375.643C182.185 374.45 182.455 373.238 183.199 372.375C183.902 371.56 184.94 371.141 185.984 371.137C189.5 371.125 193.916 371.16 198.28 371.193C200.781 371.213 203.265 371.232 205.552 371.242C208.705 371.256 211.482 371.254 213.447 371.213C213.977 371.202 214.438 371.188 214.824 371.172C214.884 370.846 214.958 370.49 215.044 370.119C215.34 368.844 215.817 367.233 216.456 365.912C217.501 363.755 220 363.683 221.49 364.705C222.738 365.56 223.815 366.359 224.894 367.16C225.059 367.282 225.224 367.405 225.389 367.527C226.642 368.455 227.96 369.417 229.661 370.548Z" fill="#67AD30" stroke="#513513" stroke-width="3.84378"/>
</svg>
