<svg width="582" height="202" viewBox="0 0 582 202" fill="none" xmlns="http://www.w3.org/2000/svg">
<path d="M181.107 69.1155V53.2647C181.107 50.8833 182.788 48.8359 185.118 48.3433C224.67 39.9815 243.485 29.5891 268.813 6.98389C270.703 5.29631 273.564 5.25765 275.499 6.89492C303.156 30.3028 322.973 40.1922 361.165 48.337C363.49 48.8327 365.165 50.8779 365.165 53.2548V69.1155V150.466C365.165 152.377 364.075 154.121 362.358 154.959L278.314 195.965C276.971 196.62 275.405 196.64 274.045 196.02L184.03 154.924C182.249 154.111 181.107 152.334 181.107 150.376V69.1155Z" stroke="#513513" stroke-width="10"/>
<rect y="69" width="573.633" height="83" fill="#AEDC7E"/>
<path d="M54.0874 98.6746V87.4426H10.1674V98.6746H26.0074V140.219H38.2474V98.6746H54.0874ZM114.435 118.763V87.4426H102.195V117.899C102.195 125.387 99.0267 129.923 92.1147 129.923C85.1307 129.923 81.9627 125.387 81.9627 117.899V87.4426H69.7227V118.763C69.7227 133.451 77.6427 141.083 91.8267 141.083C106.011 141.083 114.435 133.451 114.435 118.763ZM167.261 98.6746V87.4426H133.853V140.219H146.093V121.067H164.237V110.339H146.093V98.6746H167.261ZM217.104 98.6746V87.4426H183.696V140.219H195.936V121.067H214.08V110.339H195.936V98.6746H217.104ZM277.891 87.4426H264.139L253.339 107.675L242.539 87.4426H228.499L247.075 119.267V140.219H259.315V119.339L277.891 87.4426ZM337.799 140.219V87.4426H325.559V108.107H305.255V87.4426H293.015V140.219H305.255V119.051H325.559V140.219H337.799ZM402.831 140.219L377.991 87.0106H376.335L351.495 140.219H363.951L367.911 130.643H386.127L390.087 140.219H402.831ZM382.239 121.283H371.799L377.055 108.611L382.239 121.283ZM458.421 136.187L454.749 125.819C450.789 128.267 445.893 129.707 441.573 129.707C431.709 129.707 425.589 123.659 425.589 113.867C425.589 104.075 431.709 98.0266 441.573 98.0266C445.893 98.0266 450.285 99.3946 454.173 101.555L457.917 91.1866C453.165 88.3786 447.549 86.5786 441.429 86.5786C424.221 86.5786 412.557 98.1706 412.557 113.867C412.557 129.491 424.221 141.083 441.429 141.083C447.477 141.083 453.813 139.211 458.421 136.187ZM521.467 140.219L498.643 112.571L520.315 87.4426H505.843L487.339 110.411V87.4426H475.099V140.219H487.339V115.523L506.707 140.219H521.467ZM569.933 124.667C569.933 117.899 566.981 113.147 557.117 108.971C550.493 106.163 547.829 105.011 547.829 101.555C547.829 99.3946 549.629 97.3066 554.093 97.3066C557.837 97.3066 562.733 99.5386 565.757 101.627L568.853 90.6826C565.757 88.5946 559.853 86.5786 554.093 86.5786C541.781 86.5786 535.517 94.0666 535.517 101.771C535.517 108.107 538.757 113.507 548.045 117.251C556.109 120.491 557.477 122.363 557.477 125.099C557.477 127.691 555.821 129.707 551.501 129.707C546.533 129.707 540.989 127.691 536.741 124.595L533.357 135.683C537.965 138.707 545.165 141.083 551.141 141.083C563.813 141.083 569.933 133.091 569.933 124.667Z" fill="#F5D2A5"/>
<path d="M54.0874 98.6746V103.675H59.0874V98.6746H54.0874ZM54.0874 87.4426H59.0874V82.4426H54.0874V87.4426ZM10.1674 87.4426V82.4426H5.16743V87.4426H10.1674ZM10.1674 98.6746H5.16743V103.675H10.1674V98.6746ZM26.0074 98.6746H31.0074V93.6746H26.0074V98.6746ZM26.0074 140.219H21.0074V145.219H26.0074V140.219ZM38.2474 140.219V145.219H43.2474V140.219H38.2474ZM38.2474 98.6746V93.6746H33.2474V98.6746H38.2474ZM59.0874 98.6746V87.4426H49.0874V98.6746H59.0874ZM54.0874 82.4426H10.1674V92.4426H54.0874V82.4426ZM5.16743 87.4426V98.6746H15.1674V87.4426H5.16743ZM10.1674 103.675H26.0074V93.6746H10.1674V103.675ZM21.0074 98.6746V140.219H31.0074V98.6746H21.0074ZM26.0074 145.219H38.2474V135.219H26.0074V145.219ZM43.2474 140.219V98.6746H33.2474V140.219H43.2474ZM38.2474 103.675H54.0874V93.6746H38.2474V103.675ZM114.435 87.4426H119.435V82.4426H114.435V87.4426ZM102.195 87.4426V82.4426H97.1947V87.4426H102.195ZM81.9627 87.4426H86.9627V82.4426H81.9627V87.4426ZM69.7227 87.4426V82.4426H64.7227V87.4426H69.7227ZM119.435 118.763V87.4426H109.435V118.763H119.435ZM114.435 82.4426H102.195V92.4426H114.435V82.4426ZM97.1947 87.4426V117.899H107.195V87.4426H97.1947ZM97.1947 117.899C97.1947 121.05 96.5114 122.759 95.8423 123.595C95.33 124.236 94.3937 124.923 92.1147 124.923V134.923C96.7477 134.923 100.851 133.342 103.651 129.842C106.294 126.538 107.195 122.235 107.195 117.899H97.1947ZM92.1147 124.923C89.7828 124.923 88.8299 124.224 88.3158 123.585C87.6463 122.752 86.9627 121.051 86.9627 117.899H76.9627C76.9627 122.234 77.8631 126.545 80.5236 129.852C83.3395 133.353 87.4626 134.923 92.1147 134.923V124.923ZM86.9627 117.899V87.4426H76.9627V117.899H86.9627ZM81.9627 82.4426H69.7227V92.4426H81.9627V82.4426ZM64.7227 87.4426V118.763H74.7227V87.4426H64.7227ZM64.7227 118.763C64.7227 126.974 66.9487 134.007 71.9244 138.97C76.8973 143.931 83.8719 146.083 91.8267 146.083V136.083C85.5975 136.083 81.5201 134.418 78.987 131.891C76.4567 129.367 74.7227 125.239 74.7227 118.763H64.7227ZM91.8267 146.083C99.7785 146.083 106.839 143.935 111.922 139.028C117.035 134.093 119.435 127.058 119.435 118.763H109.435C109.435 125.155 107.622 129.28 104.977 131.833C102.303 134.414 98.0589 136.083 91.8267 136.083V146.083ZM167.261 98.6746V103.675H172.261V98.6746H167.261ZM167.261 87.4426H172.261V82.4426H167.261V87.4426ZM133.853 87.4426V82.4426H128.853V87.4426H133.853ZM133.853 140.219H128.853V145.219H133.853V140.219ZM146.093 140.219V145.219H151.093V140.219H146.093ZM146.093 121.067V116.067H141.093V121.067H146.093ZM164.237 121.067V126.067H169.237V121.067H164.237ZM164.237 110.339H169.237V105.339H164.237V110.339ZM146.093 110.339H141.093V115.339H146.093V110.339ZM146.093 98.6746V93.6746H141.093V98.6746H146.093ZM172.261 98.6746V87.4426H162.261V98.6746H172.261ZM167.261 82.4426H133.853V92.4426H167.261V82.4426ZM128.853 87.4426V140.219H138.853V87.4426H128.853ZM133.853 145.219H146.093V135.219H133.853V145.219ZM151.093 140.219V121.067H141.093V140.219H151.093ZM146.093 126.067H164.237V116.067H146.093V126.067ZM169.237 121.067V110.339H159.237V121.067H169.237ZM164.237 105.339H146.093V115.339H164.237V105.339ZM151.093 110.339V98.6746H141.093V110.339H151.093ZM146.093 103.675H167.261V93.6746H146.093V103.675ZM217.104 98.6746V103.675H222.104V98.6746H217.104ZM217.104 87.4426H222.104V82.4426H217.104V87.4426ZM183.696 87.4426V82.4426H178.696V87.4426H183.696ZM183.696 140.219H178.696V145.219H183.696V140.219ZM195.936 140.219V145.219H200.936V140.219H195.936ZM195.936 121.067V116.067H190.936V121.067H195.936ZM214.08 121.067V126.067H219.08V121.067H214.08ZM214.08 110.339H219.08V105.339H214.08V110.339ZM195.936 110.339H190.936V115.339H195.936V110.339ZM195.936 98.6746V93.6746H190.936V98.6746H195.936ZM222.104 98.6746V87.4426H212.104V98.6746H222.104ZM217.104 82.4426H183.696V92.4426H217.104V82.4426ZM178.696 87.4426V140.219H188.696V87.4426H178.696ZM183.696 145.219H195.936V135.219H183.696V145.219ZM200.936 140.219V121.067H190.936V140.219H200.936ZM195.936 126.067H214.08V116.067H195.936V126.067ZM219.08 121.067V110.339H209.08V121.067H219.08ZM214.08 105.339H195.936V115.339H214.08V105.339ZM200.936 110.339V98.6746H190.936V110.339H200.936ZM195.936 103.675H217.104V93.6746H195.936V103.675ZM277.891 87.4426L282.212 89.9589L286.589 82.4426H277.891V87.4426ZM264.139 87.4426V82.4426H261.14L259.728 85.088L264.139 87.4426ZM253.339 107.675L248.928 110.029L253.339 118.292L257.75 110.029L253.339 107.675ZM242.539 87.4426L246.95 85.088L245.538 82.4426H242.539V87.4426ZM228.499 87.4426V82.4426H219.791L224.181 89.9631L228.499 87.4426ZM247.075 119.267H252.075V117.914L251.393 116.746L247.075 119.267ZM247.075 140.219H242.075V145.219H247.075V140.219ZM259.315 140.219V145.219H264.315V140.219H259.315ZM259.315 119.339L254.994 116.822L254.315 117.989V119.339H259.315ZM277.891 82.4426H264.139V92.4426H277.891V82.4426ZM259.728 85.088L248.928 105.32L257.75 110.029L268.55 89.7971L259.728 85.088ZM257.75 105.32L246.95 85.088L238.128 89.7971L248.928 110.029L257.75 105.32ZM242.539 82.4426H228.499V92.4426H242.539V82.4426ZM224.181 89.9631L242.757 121.787L251.393 116.746L232.817 84.922L224.181 89.9631ZM242.075 119.267V140.219H252.075V119.267H242.075ZM247.075 145.219H259.315V135.219H247.075V145.219ZM264.315 140.219V119.339H254.315V140.219H264.315ZM263.636 121.855L282.212 89.9589L273.57 84.9262L254.994 116.822L263.636 121.855ZM337.799 140.219V145.219H342.799V140.219H337.799ZM337.799 87.4426H342.799V82.4426H337.799V87.4426ZM325.559 87.4426V82.4426H320.559V87.4426H325.559ZM325.559 108.107V113.107H330.559V108.107H325.559ZM305.255 108.107H300.255V113.107H305.255V108.107ZM305.255 87.4426H310.255V82.4426H305.255V87.4426ZM293.015 87.4426V82.4426H288.015V87.4426H293.015ZM293.015 140.219H288.015V145.219H293.015V140.219ZM305.255 140.219V145.219H310.255V140.219H305.255ZM305.255 119.051V114.051H300.255V119.051H305.255ZM325.559 119.051H330.559V114.051H325.559V119.051ZM325.559 140.219H320.559V145.219H325.559V140.219ZM342.799 140.219V87.4426H332.799V140.219H342.799ZM337.799 82.4426H325.559V92.4426H337.799V82.4426ZM320.559 87.4426V108.107H330.559V87.4426H320.559ZM325.559 103.107H305.255V113.107H325.559V103.107ZM310.255 108.107V87.4426H300.255V108.107H310.255ZM305.255 82.4426H293.015V92.4426H305.255V82.4426ZM288.015 87.4426V140.219H298.015V87.4426H288.015ZM293.015 145.219H305.255V135.219H293.015V145.219ZM310.255 140.219V119.051H300.255V140.219H310.255ZM305.255 124.051H325.559V114.051H305.255V124.051ZM320.559 119.051V140.219H330.559V119.051H320.559ZM325.559 145.219H337.799V135.219H325.559V145.219ZM402.831 140.219V145.219H410.684L407.362 138.103L402.831 140.219ZM377.991 87.0106L382.522 84.8955L381.175 82.0106H377.991V87.0106ZM376.335 87.0106V82.0106H373.151L371.805 84.8955L376.335 87.0106ZM351.495 140.219L346.965 138.103L343.643 145.219H351.495V140.219ZM363.951 140.219V145.219H367.294L368.572 142.129L363.951 140.219ZM367.911 130.643V125.643H364.568L363.291 128.732L367.911 130.643ZM386.127 130.643L390.748 128.732L389.47 125.643H386.127V130.643ZM390.087 140.219L385.467 142.129L386.744 145.219H390.087V140.219ZM382.239 121.283V126.283H389.687L386.867 119.389L382.239 121.283ZM371.799 121.283L367.181 119.367L364.312 126.283H371.799V121.283ZM377.055 108.611L381.683 106.717L377.087 95.4831L372.437 106.695L377.055 108.611ZM407.362 138.103L382.522 84.8955L373.461 89.1257L398.301 142.334L407.362 138.103ZM377.991 82.0106H376.335V92.0106H377.991V82.0106ZM371.805 84.8955L346.965 138.103L356.026 142.334L380.866 89.1257L371.805 84.8955ZM351.495 145.219H363.951V135.219H351.495V145.219ZM368.572 142.129L372.532 132.553L363.291 128.732L359.331 138.308L368.572 142.129ZM367.911 135.643H386.127V125.643H367.911V135.643ZM381.507 132.553L385.467 142.129L394.708 138.308L390.748 128.732L381.507 132.553ZM390.087 145.219H402.831V135.219H390.087V145.219ZM382.239 116.283H371.799V126.283H382.239V116.283ZM376.418 123.198L381.674 110.526L372.437 106.695L367.181 119.367L376.418 123.198ZM372.428 110.504L377.612 123.176L386.867 119.389L381.683 106.717L372.428 110.504ZM458.421 136.187L461.165 140.367L464.444 138.215L463.135 134.517L458.421 136.187ZM454.749 125.819L459.463 124.149L457.393 118.306L452.12 121.566L454.749 125.819ZM454.173 101.555L451.745 105.925L456.881 108.778L458.876 103.253L454.173 101.555ZM457.917 91.1866L462.62 92.8848L464.027 88.9891L460.461 86.8819L457.917 91.1866ZM463.135 134.517L459.463 124.149L450.036 127.488L453.708 137.856L463.135 134.517ZM452.12 121.566C448.891 123.562 444.898 124.707 441.573 124.707V134.707C446.889 134.707 452.688 132.971 457.379 130.072L452.12 121.566ZM441.573 124.707C437.67 124.707 435.04 123.529 433.401 121.906C431.767 120.288 430.589 117.706 430.589 113.867H420.589C420.589 119.819 422.472 125.157 426.364 129.011C430.251 132.86 435.613 134.707 441.573 134.707V124.707ZM430.589 113.867C430.589 110.027 431.767 107.445 433.401 105.827C435.04 104.204 437.67 103.027 441.573 103.027V93.0266C435.613 93.0266 430.251 94.8733 426.364 98.7217C422.472 102.576 420.589 107.914 420.589 113.867H430.589ZM441.573 103.027C444.868 103.027 448.429 104.083 451.745 105.925L456.602 97.1838C452.142 94.7061 446.919 93.0266 441.573 93.0266V103.027ZM458.876 103.253L462.62 92.8848L453.215 89.4883L449.471 99.8563L458.876 103.253ZM460.461 86.8819C455.032 83.6741 448.547 81.5786 441.429 81.5786V91.5786C446.552 91.5786 451.299 93.0831 455.374 95.4912L460.461 86.8819ZM441.429 81.5786C431.682 81.5786 423.178 84.8786 417.079 90.7281C410.973 96.5853 407.557 104.737 407.557 113.867H417.557C417.557 107.3 419.974 101.808 424.001 97.945C428.037 94.0745 433.969 91.5786 441.429 91.5786V81.5786ZM407.557 113.867C407.557 132.455 421.668 146.083 441.429 146.083V136.083C426.775 136.083 417.557 126.526 417.557 113.867H407.557ZM441.429 146.083C448.396 146.083 455.696 143.956 461.165 140.367L455.678 132.006C451.931 134.465 446.559 136.083 441.429 136.083V146.083ZM521.467 140.219V145.219H532.078L525.323 137.035L521.467 140.219ZM498.643 112.571L494.857 109.305L492.101 112.5L494.787 115.754L498.643 112.571ZM520.315 87.4426L524.101 90.7081L531.23 82.4426H520.315V87.4426ZM505.843 87.4426V82.4426H503.45L501.949 84.3057L505.843 87.4426ZM487.339 110.411H482.339V124.587L491.233 113.547L487.339 110.411ZM487.339 87.4426H492.339V82.4426H487.339V87.4426ZM475.099 87.4426V82.4426H470.099V87.4426H475.099ZM475.099 140.219H470.099V145.219H475.099V140.219ZM487.339 140.219V145.219H492.339V140.219H487.339ZM487.339 115.523L491.273 112.437L482.339 101.045V115.523H487.339ZM506.707 140.219L502.773 143.304L504.274 145.219H506.707V140.219ZM525.323 137.035L502.499 109.387L494.787 115.754L517.611 143.402L525.323 137.035ZM502.429 115.836L524.101 90.7081L516.529 84.177L494.857 109.305L502.429 115.836ZM520.315 82.4426H505.843V92.4426H520.315V82.4426ZM501.949 84.3057L483.445 107.274L491.233 113.547L509.737 90.5794L501.949 84.3057ZM492.339 110.411V87.4426H482.339V110.411H492.339ZM487.339 82.4426H475.099V92.4426H487.339V82.4426ZM470.099 87.4426V140.219H480.099V87.4426H470.099ZM475.099 145.219H487.339V135.219H475.099V145.219ZM492.339 140.219V115.523H482.339V140.219H492.339ZM483.405 118.608L502.773 143.304L510.641 137.133L491.273 112.437L483.405 118.608ZM506.707 145.219H521.467V135.219H506.707V145.219ZM557.117 108.971L555.166 113.574L555.168 113.575L557.117 108.971ZM565.757 101.627L562.916 105.741L568.666 109.711L570.568 102.988L565.757 101.627ZM568.853 90.6826L573.664 92.0436L574.65 88.5609L571.649 86.5372L568.853 90.6826ZM548.045 117.251L546.176 121.888L546.181 121.89L548.045 117.251ZM536.741 124.595L539.686 120.554L534.009 116.417L531.959 123.135L536.741 124.595ZM533.357 135.683L528.575 134.223L527.481 137.807L530.614 139.863L533.357 135.683ZM574.933 124.667C574.933 120.491 573.998 116.444 571.184 112.793C568.473 109.278 564.389 106.62 559.066 104.366L555.168 113.575C559.709 115.498 562.033 117.303 563.265 118.9C564.392 120.362 564.933 122.074 564.933 124.667H574.933ZM559.069 104.367C557.387 103.654 556.077 103.097 555.003 102.591C553.917 102.079 553.283 101.715 552.902 101.442C552.551 101.19 552.611 101.152 552.723 101.354C552.856 101.594 552.829 101.742 552.829 101.555H542.829C542.829 103.095 543.136 104.683 543.975 106.199C544.793 107.677 545.934 108.75 547.076 109.569C549.132 111.043 552.092 112.271 555.166 113.574L559.069 104.367ZM552.829 101.555C552.829 101.715 552.794 101.921 552.692 102.134C552.587 102.353 552.455 102.491 552.376 102.552C552.235 102.663 552.584 102.307 554.093 102.307V92.3066C551.139 92.3066 548.356 92.9937 546.198 94.689C543.943 96.4605 542.829 98.9921 542.829 101.555H552.829ZM554.093 102.307C555.083 102.307 556.58 102.63 558.356 103.333C560.076 104.013 561.719 104.915 562.916 105.741L568.598 97.5121C566.771 96.2504 564.454 94.9917 562.035 94.0342C559.671 93.099 556.847 92.3066 554.093 92.3066V102.307ZM570.568 102.988L573.664 92.0436L564.042 89.3215L560.946 100.266L570.568 102.988ZM571.649 86.5372C567.677 83.8586 560.788 81.5786 554.093 81.5786V91.5786C558.919 91.5786 563.837 93.3305 566.057 94.8279L571.649 86.5372ZM554.093 81.5786C546.906 81.5786 540.991 83.7817 536.817 87.5931C532.654 91.3935 530.517 96.5406 530.517 101.771H540.517C540.517 99.2965 541.512 96.8476 543.559 94.978C545.595 93.1194 548.968 91.5786 554.093 91.5786V81.5786ZM530.517 101.771C530.517 105.849 531.582 109.886 534.308 113.496C536.983 117.038 540.972 119.79 546.176 121.888L549.914 112.613C545.83 110.967 543.555 109.147 542.288 107.469C541.072 105.859 540.517 104.028 540.517 101.771H530.517ZM546.181 121.89C550.17 123.493 551.799 124.503 552.44 125.08C552.671 125.288 552.603 125.292 552.521 125.095C552.445 124.911 552.477 124.837 552.477 125.099H562.477C562.477 123.992 562.339 122.658 561.754 121.252C561.163 119.834 560.249 118.654 559.13 117.647C557.071 115.794 553.984 114.248 549.909 112.611L546.181 121.89ZM552.477 125.099C552.477 125.22 552.458 125.182 552.512 125.045C552.575 124.889 552.69 124.722 552.832 124.598C553.107 124.36 552.961 124.707 551.501 124.707V134.707C554.362 134.707 557.204 134.045 559.386 132.151C561.673 130.166 562.477 127.494 562.477 125.099H552.477ZM551.501 124.707C547.745 124.707 543.212 123.124 539.686 120.554L533.796 128.635C538.766 132.258 545.321 134.707 551.501 134.707V124.707ZM531.959 123.135L528.575 134.223L538.139 137.142L541.523 126.054L531.959 123.135ZM530.614 139.863C535.969 143.377 544.113 146.083 551.141 146.083V136.083C546.217 136.083 539.961 134.036 536.1 131.502L530.614 139.863ZM551.141 146.083C558.563 146.083 564.592 143.716 568.788 139.605C572.954 135.524 574.933 130.089 574.933 124.667H564.933C564.933 127.669 563.853 130.441 561.79 132.462C559.758 134.453 556.391 136.083 551.141 136.083V146.083Z" fill="#644117"/>
</svg>
