<svg width="570" height="202" viewBox="0 0 570 202" fill="none" xmlns="http://www.w3.org/2000/svg">
  
  <path d="M176.107 69.1155V53.2647C176.107 50.8833 177.788 48.8359 180.118 48.3433C219.67 39.9815 238.485 29.5891 263.813 6.98389C265.703 5.29631 268.564 5.25765 270.499 6.89492C298.156 30.3028 317.973 40.1922 356.165 48.337C358.49 48.8327 360.165 50.8779 360.165 53.2548V69.1155V150.466C360.165 152.377 359.075 154.121 357.358 154.959L273.314 195.965C271.971 196.62 270.405 196.64 269.045 196.02L179.03 154.924C177.249 154.111 176.107 152.334 176.107 150.376V69.1155Z" stroke="#513513" stroke-width="10"/>

  <path d="M49.0872 105.15V93.9181H5.16719V105.15H21.0072V146.694H33.2472V105.15H49.0872ZM109.434 125.238V93.9181H97.1944V124.374C97.1944 131.862 94.0264 136.398 87.1144 136.398C80.1304 136.398 76.9624 131.862 76.9624 124.374V93.9181H64.7224V125.238C64.7224 139.926 72.6424 147.558 86.8264 147.558C101.01 147.558 109.434 139.926 109.434 125.238ZM162.261 105.15V93.9181H128.852V146.694H141.092V127.542H159.237V116.814H141.092V105.15H162.261ZM212.104 105.15V93.9181H178.696V146.694H190.936V127.542H209.08V116.814H190.936V105.15H212.104ZM272.891 93.9181H259.139L248.339 114.15L237.539 93.9181H223.499L242.075 125.742V146.694H254.315V125.814L272.891 93.9181ZM332.799 146.694V93.9181H320.559V114.582H300.255V93.9181H288.015V146.694H300.255V125.526H320.559V146.694H332.799ZM397.831 146.694L372.991 93.4861H371.335L346.495 146.694H358.951L362.911 137.118H381.127L385.087 146.694H397.831ZM377.239 127.758H366.799L372.055 115.086L377.239 127.758ZM453.421 142.662L449.749 132.294C445.789 134.742 440.893 136.182 436.573 136.182C426.709 136.182 420.589 130.134 420.589 120.342C420.589 110.55 426.709 104.502 436.573 104.502C440.893 104.502 445.285 105.87 449.173 108.03L452.917 97.6621C448.165 94.8541 442.549 93.0541 436.429 93.0541C419.221 93.0541 407.557 104.646 407.557 120.342C407.557 135.966 419.221 147.558 436.429 147.558C442.477 147.558 448.813 145.686 453.421 142.662ZM516.467 146.694L493.643 119.046L515.315 93.9181H500.843L482.339 116.886V93.9181H470.099V146.694H482.339V121.998L501.707 146.694H516.467ZM564.933 131.142C564.933 124.374 561.981 119.622 552.117 115.446C545.493 112.638 542.829 111.486 542.829 108.03C542.829 105.87 544.629 103.782 549.093 103.782C552.837 103.782 557.733 106.014 560.757 108.102L563.853 97.1581C560.757 95.0701 554.853 93.0541 549.093 93.0541C536.781 93.0541 530.517 100.542 530.517 108.246C530.517 114.582 533.757 119.982 543.045 123.726C551.109 126.966 552.477 128.838 552.477 131.574C552.477 134.166 550.821 136.182 546.501 136.182C541.533 136.182 535.989 134.166 531.741 131.07L528.357 142.158C532.965 145.182 540.165 147.558 546.141 147.558C558.813 147.558 564.933 139.566 564.933 131.142Z" fill="#F5D2A5"/>
  
  <path d="M49.0872 105.15V110.15H54.0872V105.15H49.0872ZM49.0872 93.9181H54.0872V88.9181H49.0872V93.9181ZM5.16719 93.9181V88.9181H0.167187V93.9181H5.16719ZM5.16719 105.15H0.167187V110.15H5.16719V105.15ZM21.0072 105.15H26.0072V100.15H21.0072V105.15ZM21.0072 146.694H16.0072V151.694H21.0072V146.694ZM33.2472 146.694V151.694H38.2472V146.694H33.2472ZM33.2472 105.15V100.15H28.2472V105.15H33.2472ZM54.0872 105.15V93.9181H44.0872V105.15H54.0872ZM49.0872 88.9181H5.16719V98.9181H49.0872V88.9181ZM0.167187 93.9181V105.15H10.1672V93.9181H0.167187ZM5.16719 110.15H21.0072V100.15H5.16719V110.15ZM16.0072 105.15V146.694H26.0072V105.15H16.0072ZM21.0072 151.694H33.2472V141.694H21.0072V151.694ZM38.2472 146.694V105.15H28.2472V146.694H38.2472ZM33.2472 110.15H49.0872V100.15H33.2472V110.15ZM109.434 93.9181H114.434V88.9181H109.434V93.9181ZM97.1944 93.9181V88.9181H92.1944V93.9181H97.1944ZM76.9624 93.9181H81.9624V88.9181H76.9624V93.9181ZM64.7224 93.9181V88.9181H59.7224V93.9181H64.7224ZM114.434 125.238V93.9181H104.434V125.238H114.434ZM109.434 88.9181H97.1944V98.9181H109.434V88.9181ZM92.1944 93.9181V124.374H102.194V93.9181H92.1944ZM92.1944 124.374C92.1944 127.526 91.5111 129.234 90.8421 130.071C90.3298 130.711 89.3934 131.398 87.1144 131.398V141.398C91.7475 141.398 95.8511 139.817 98.6508 136.318C101.294 133.014 102.194 128.71 102.194 124.374H92.1944ZM87.1144 131.398C84.7825 131.398 83.8297 130.7 83.3155 130.06C82.646 129.228 81.9624 127.527 81.9624 124.374H71.9624C71.9624 128.71 72.8628 133.02 75.5234 136.328C78.3392 139.829 82.4623 141.398 87.1144 141.398V131.398ZM81.9624 124.374V93.9181H71.9624V124.374H81.9624ZM76.9624 88.9181H64.7224V98.9181H76.9624V88.9181ZM59.7224 93.9181V125.238H69.7224V93.9181H59.7224ZM59.7224 125.238C59.7224 133.45 61.9484 140.482 66.9241 145.446C71.897 150.407 78.8716 152.558 86.8264 152.558V142.558C80.5973 142.558 76.5198 140.893 73.9867 138.366C71.4564 135.842 69.7224 131.715 69.7224 125.238H59.7224ZM86.8264 152.558C94.7782 152.558 101.838 150.41 106.922 145.504C112.035 140.569 114.434 133.533 114.434 125.238H104.434C104.434 131.631 102.622 135.755 99.9771 138.309C97.3025 140.89 93.0587 142.558 86.8264 142.558V152.558ZM162.26 105.15V110.15H167.26V105.15H162.26ZM162.26 93.9181H167.26V88.9181H162.26V93.9181ZM128.853 93.9181V88.9181H123.853V93.9181H128.853ZM128.853 146.694H123.853V151.694H128.853V146.694ZM141.092 146.694V151.694H146.092V146.694H141.092ZM141.092 127.542V122.542H136.092V127.542H141.092ZM159.236 127.542V132.542H164.236V127.542H159.236ZM159.236 116.814H164.236V111.814H159.236V116.814ZM141.092 116.814H136.092V121.814H141.092V116.814ZM141.092 105.15V100.15H136.092V105.15H141.092ZM167.26 105.15V93.9181H157.26V105.15H167.26ZM162.26 88.9181H128.853V98.9181H162.26V88.9181ZM123.853 93.9181V146.694H133.852V93.9181H123.853ZM128.853 151.694H141.092V141.694H128.853V151.694ZM146.092 146.694V127.542H136.092V146.694H146.092ZM141.092 132.542H159.236V122.542H141.092V132.542ZM164.236 127.542V116.814H154.236V127.542H164.236ZM159.236 111.814H141.092V121.814H159.236V111.814ZM146.092 116.814V105.15H136.092V116.814H146.092ZM141.092 110.15H162.26V100.15H141.092V110.15ZM212.104 105.15V110.15H217.104V105.15H212.104ZM212.104 93.9181H217.104V88.9181H212.104V93.9181ZM178.696 93.9181V88.9181H173.696V93.9181H178.696ZM178.696 146.694H173.696V151.694H178.696V146.694ZM190.936 146.694V151.694H195.936V146.694H190.936ZM190.936 127.542V122.542H185.936V127.542H190.936ZM209.08 127.542V132.542H214.08V127.542H209.08ZM209.08 116.814H214.08V111.814H209.08V116.814ZM190.936 116.814H185.936V121.814H190.936V116.814ZM190.936 105.15V100.15H185.936V105.15H190.936ZM217.104 105.15V93.9181H207.104V105.15H217.104ZM212.104 88.9181H178.696V98.9181H212.104V88.9181ZM173.696 93.9181V146.694H183.696V93.9181H173.696ZM178.696 151.694H190.936V141.694H178.696V151.694ZM195.936 146.694V127.542H185.936V146.694H195.936ZM190.936 132.542H209.08V122.542H190.936V132.542ZM214.08 127.542V116.814H204.08V127.542H214.08ZM209.08 111.814H190.936V121.814H209.08V111.814ZM195.936 116.814V105.15H185.936V116.814H195.936ZM190.936 110.15H212.104V100.15H190.936V110.15ZM272.891 93.9181L277.211 96.4344L281.589 88.9181H272.891V93.9181ZM259.139 93.9181V88.9181H256.14L254.728 91.5635L259.139 93.9181ZM248.339 114.15L243.928 116.505L248.339 124.768L252.75 116.505L248.339 114.15ZM237.539 93.9181L241.95 91.5635L240.537 88.9181H237.539V93.9181ZM223.499 93.9181V88.9181H214.791L219.181 96.4387L223.499 93.9181ZM242.075 125.742H247.075V124.39L246.393 123.222L242.075 125.742ZM242.075 146.694H237.075V151.694H242.075V146.694ZM254.315 146.694V151.694H259.315V146.694H254.315ZM254.315 125.814L249.994 123.298L249.315 124.464V125.814H254.315ZM272.891 88.9181H259.139V98.9181H272.891V88.9181ZM254.728 91.5635L243.928 111.796L252.75 116.505L263.55 96.2727L254.728 91.5635ZM252.75 111.796L241.95 91.5635L233.128 96.2727L243.928 116.505L252.75 111.796ZM237.539 88.9181H223.499V98.9181H237.539V88.9181ZM219.181 96.4387L237.757 128.263L246.393 123.222L227.817 91.3975L219.181 96.4387ZM237.075 125.742V146.694H247.075V125.742H237.075ZM242.075 151.694H254.315V141.694H242.075V151.694ZM259.315 146.694V125.814H249.315V146.694H259.315ZM258.635 128.33L277.211 96.4344L268.57 91.4018L249.994 123.298L258.635 128.33ZM332.799 146.694V151.694H337.799V146.694H332.799ZM332.799 93.9181H337.799V88.9181H332.799V93.9181ZM320.559 93.9181V88.9181H315.559V93.9181H320.559ZM320.559 114.582V119.582H325.559V114.582H320.559ZM300.255 114.582H295.255V119.582H300.255V114.582ZM300.255 93.9181H305.255V88.9181H300.255V93.9181ZM288.015 93.9181V88.9181H283.015V93.9181H288.015ZM288.015 146.694H283.015V151.694H288.015V146.694ZM300.255 146.694V151.694H305.255V146.694H300.255ZM300.255 125.526V120.526H295.255V125.526H300.255ZM320.559 125.526H325.559V120.526H320.559V125.526ZM320.559 146.694H315.559V151.694H320.559V146.694ZM337.799 146.694V93.9181H327.799V146.694H337.799ZM332.799 88.9181H320.559V98.9181H332.799V88.9181ZM315.559 93.9181V114.582H325.559V93.9181H315.559ZM320.559 109.582H300.255V119.582H320.559V109.582ZM305.255 114.582V93.9181H295.255V114.582H305.255ZM300.255 88.9181H288.015V98.9181H300.255V88.9181ZM283.015 93.9181V146.694H293.015V93.9181H283.015ZM288.015 151.694H300.255V141.694H288.015V151.694ZM305.255 146.694V125.526H295.255V146.694H305.255ZM300.255 130.526H320.559V120.526H300.255V130.526ZM315.559 125.526V146.694H325.559V125.526H315.559ZM320.559 151.694H332.799V141.694H320.559V151.694ZM397.831 146.694V151.694H405.683L402.362 144.579L397.831 146.694ZM372.991 93.4861L377.522 91.371L376.175 88.4861H372.991V93.4861ZM371.335 93.4861V88.4861H368.151L366.804 91.371L371.335 93.4861ZM346.495 146.694L341.964 144.579L338.643 151.694H346.495V146.694ZM358.951 146.694V151.694H362.294L363.572 148.605L358.951 146.694ZM362.911 137.118V132.118H359.568L358.29 135.207L362.911 137.118ZM381.127 137.118L385.747 135.207L384.47 132.118H381.127V137.118ZM385.087 146.694L380.466 148.605L381.744 151.694H385.087V146.694ZM377.239 127.758V132.758H384.687L381.867 125.865L377.239 127.758ZM366.799 127.758L362.181 125.842L359.312 132.758H366.799V127.758ZM372.055 115.086L376.683 113.193L372.087 101.959L367.437 113.17L372.055 115.086ZM402.362 144.579L377.522 91.371L368.46 95.6012L393.3 148.809L402.362 144.579ZM372.991 88.4861H371.335V98.4861H372.991V88.4861ZM366.804 91.371L341.964 144.579L351.026 148.809L375.866 95.6012L366.804 91.371ZM346.495 151.694H358.951V141.694H346.495V151.694ZM363.572 148.605L367.531 139.029L358.29 135.207L354.33 144.783L363.572 148.605ZM362.911 142.118H381.127V132.118H362.911V142.118ZM376.507 139.029L380.466 148.605L389.708 144.783L385.747 135.207L376.507 139.029ZM385.087 151.694H397.831V141.694H385.087V151.694ZM377.239 122.758H366.799V132.758H377.239V122.758ZM371.417 129.674L376.673 117.002L367.437 113.17L362.181 125.842L371.417 129.674ZM367.427 116.979L372.611 129.651L381.867 125.865L376.683 113.193L367.427 116.979ZM453.421 142.662L456.164 146.842L459.444 144.69L458.134 140.993L453.421 142.662ZM449.749 132.294L454.462 130.625L452.393 124.782L447.12 128.041L449.749 132.294ZM449.173 108.03L446.745 112.401L451.881 115.254L453.876 109.728L449.173 108.03ZM452.917 97.6621L457.62 99.3603L459.027 95.4646L455.461 93.3575L452.917 97.6621ZM458.134 140.993L454.462 130.625L445.036 133.963L448.708 144.331L458.134 140.993ZM447.12 128.041C443.891 130.037 439.897 131.182 436.573 131.182V141.182C441.889 141.182 447.687 139.447 452.378 136.547L447.12 128.041ZM436.573 131.182C432.67 131.182 430.04 130.005 428.4 128.381C426.767 126.763 425.589 124.182 425.589 120.342H415.589C415.589 126.294 417.472 131.633 421.364 135.487C425.251 139.335 430.613 141.182 436.573 141.182V131.182ZM425.589 120.342C425.589 116.502 426.767 113.921 428.4 112.303C430.04 110.679 432.67 109.502 436.573 109.502V99.5021C430.613 99.5021 425.251 101.349 421.364 105.197C417.472 109.051 415.589 114.39 415.589 120.342H425.589ZM436.573 109.502C439.867 109.502 443.429 110.559 446.745 112.401L451.601 103.659C447.142 101.182 441.919 99.5021 436.573 99.5021V109.502ZM453.876 109.728L457.62 99.3603L448.214 95.9639L444.47 106.332L453.876 109.728ZM455.461 93.3575C450.032 90.1496 443.547 88.0541 436.429 88.0541V98.0541C441.552 98.0541 446.298 99.5586 450.374 101.967L455.461 93.3575ZM436.429 88.0541C426.682 88.0541 418.178 91.3542 412.079 97.2036C405.972 103.061 402.557 111.212 402.557 120.342H412.557C412.557 113.776 414.974 108.283 419.001 104.421C423.037 100.55 428.969 98.0541 436.429 98.0541V88.0541ZM402.557 120.342C402.557 138.931 416.667 152.558 436.429 152.558V142.558C421.775 142.558 412.557 133.002 412.557 120.342H402.557ZM436.429 152.558C443.396 152.558 450.696 150.431 456.164 146.842L450.678 138.482C446.931 140.941 441.559 142.558 436.429 142.558V152.558ZM516.467 146.694V151.694H527.078L520.323 143.511L516.467 146.694ZM493.643 119.046L489.856 115.781L487.101 118.976L489.787 122.229L493.643 119.046ZM515.315 93.9181L519.101 97.1836L526.23 88.9181H515.315V93.9181ZM500.843 93.9181V88.9181H498.45L496.949 90.7812L500.843 93.9181ZM482.339 116.886H477.339V131.062L486.232 120.023L482.339 116.886ZM482.339 93.9181H487.339V88.9181H482.339V93.9181ZM470.099 93.9181V88.9181H465.099V93.9181H470.099ZM470.099 146.694H465.099V151.694H470.099V146.694ZM482.339 146.694V151.694H487.339V146.694H482.339ZM482.339 121.998L486.273 118.913L477.339 107.52V121.998H482.339ZM501.707 146.694L497.772 149.78L499.274 151.694H501.707V146.694ZM520.323 143.511L497.499 115.863L489.787 122.229L512.611 149.877L520.323 143.511ZM497.429 122.312L519.101 97.1836L511.528 90.6525L489.856 115.781L497.429 122.312ZM515.315 88.9181H500.843V98.9181H515.315V88.9181ZM496.949 90.7812L478.445 113.749L486.232 120.023L504.736 97.0549L496.949 90.7812ZM487.339 116.886V93.9181H477.339V116.886H487.339ZM482.339 88.9181H470.099V98.9181H482.339V88.9181ZM465.099 93.9181V146.694H475.099V93.9181H465.099ZM470.099 151.694H482.339V141.694H470.099V151.694ZM487.339 146.694V121.998H477.339V146.694H487.339ZM478.404 125.084L497.772 149.78L505.641 143.609L486.273 118.913L478.404 125.084ZM501.707 151.694H516.467V141.694H501.707V151.694ZM552.117 115.446L550.165 120.05L550.168 120.05L552.117 115.446ZM560.757 108.102L557.916 112.217L563.666 116.187L565.568 109.463L560.757 108.102ZM563.853 97.1581L568.664 98.5191L569.649 95.0365L566.649 93.0127L563.853 97.1581ZM543.045 123.726L541.176 128.364L541.181 128.366L543.045 123.726ZM531.741 131.07L534.686 127.029L529.009 122.892L526.959 129.611L531.741 131.07ZM528.357 142.158L523.575 140.699L522.481 144.282L525.614 146.338L528.357 142.158ZM569.933 131.142C569.933 126.967 568.998 122.919 566.183 119.269C563.473 115.754 559.389 113.095 554.066 110.842L550.168 120.05C554.709 121.973 557.033 123.778 558.264 125.375C559.392 126.837 559.933 128.549 559.933 131.142H569.933ZM554.068 110.843C552.387 110.13 551.077 109.572 550.003 109.066C548.917 108.554 548.283 108.19 547.902 107.917C547.55 107.665 547.611 107.628 547.723 107.83C547.855 108.069 547.829 108.217 547.829 108.03H537.829C537.829 109.571 538.135 111.159 538.975 112.674C539.793 114.152 540.933 115.226 542.076 116.045C544.132 117.519 547.091 118.746 550.165 120.05L554.068 110.843ZM547.829 108.03C547.829 108.19 547.794 108.396 547.692 108.609C547.587 108.829 547.454 108.966 547.376 109.028C547.234 109.139 547.583 108.782 549.093 108.782V98.7821C546.138 98.7821 543.355 99.4692 541.198 101.164C538.943 102.936 537.829 105.468 537.829 108.03H547.829ZM549.093 108.782C550.083 108.782 551.579 109.106 553.355 109.808C555.076 110.489 556.719 111.39 557.916 112.217L563.598 103.988C561.771 102.726 559.454 101.467 557.034 100.51C554.671 99.5745 551.847 98.7821 549.093 98.7821V108.782ZM565.568 109.463L568.664 98.5191L559.042 95.797L555.946 106.741L565.568 109.463ZM566.649 93.0127C562.677 90.3341 555.787 88.0541 549.093 88.0541V98.0541C553.918 98.0541 558.837 99.8061 561.057 101.303L566.649 93.0127ZM549.093 88.0541C541.906 88.0541 535.991 90.2572 531.817 94.0687C527.654 97.8691 525.517 103.016 525.517 108.246H535.517C535.517 105.772 536.512 103.323 538.559 101.454C540.595 99.5949 543.968 98.0541 549.093 98.0541V88.0541ZM525.517 108.246C525.517 112.325 526.582 116.362 529.308 119.971C531.983 123.514 535.972 126.266 541.176 128.363L544.914 119.089C540.83 117.442 538.555 115.622 537.288 113.945C536.072 112.334 535.517 110.504 535.517 108.246H525.517ZM541.181 128.366C545.17 129.968 546.799 130.979 547.44 131.556C547.671 131.763 547.603 131.767 547.521 131.57C547.444 131.386 547.477 131.313 547.477 131.574H557.477C557.477 130.468 557.338 129.134 556.753 127.728C556.163 126.309 555.249 125.13 554.13 124.123C552.071 122.269 548.984 120.724 544.909 119.087L541.181 128.366ZM547.477 131.574C547.477 131.695 547.457 131.657 547.512 131.521C547.575 131.364 547.69 131.197 547.832 131.074C548.106 130.836 547.96 131.182 546.501 131.182V141.182C549.361 141.182 552.203 140.521 554.386 138.626C556.673 136.641 557.477 133.97 557.477 131.574H547.477ZM546.501 131.182C542.745 131.182 538.212 129.599 534.686 127.029L528.796 135.111C533.766 138.733 540.321 141.182 546.501 141.182V131.182ZM526.959 129.611L523.575 140.699L533.139 143.618L536.523 132.53L526.959 129.611ZM525.614 146.338C530.969 149.853 539.113 152.558 546.141 152.558V142.558C541.217 142.558 534.961 140.511 531.1 137.978L525.614 146.338ZM546.141 152.558C553.563 152.558 559.592 150.192 563.788 146.081C567.953 141.999 569.933 136.564 569.933 131.142H559.933C559.933 134.144 558.852 136.917 556.79 138.938C554.758 140.928 551.391 142.558 546.141 142.558V152.558Z" fill="#644117"/>
</svg>