<svg width="519" height="330" viewBox="0 0 519 330" fill="none" xmlns="http://www.w3.org/2000/svg">
<path d="M165.326 45.4131C164.15 43.3832 165.614 40.8417 167.96 40.8417H350.612C351.697 40.8417 352.7 41.4192 353.245 42.3577L515.345 321.562C516.523 323.592 515.059 326.136 512.712 326.136H329.762C328.676 326.136 327.672 325.557 327.127 324.617L165.326 45.4131Z" fill="#ADC222" stroke="#513513" stroke-width="6.08952"/>
<path d="M164.199 7.04488C164.199 5.36331 165.562 4.00012 167.244 4.00012H173.333C175.015 4.00012 176.378 5.36331 176.378 7.04488V37.7969C176.378 39.4785 175.015 40.8417 173.333 40.8417H167.244C165.562 40.8417 164.199 39.4785 164.199 37.7969V7.04488Z" fill="#644117"/>
<path d="M341.1 7.04488C341.1 5.36331 342.463 4.00012 344.144 4.00012H349.929C351.611 4.00012 352.974 5.36331 352.974 7.04488V37.7969C352.974 39.4785 351.611 40.8417 349.929 40.8417H344.144C342.463 40.8417 341.1 39.4785 341.1 37.7969V7.04488Z" fill="#644117"/>
<path d="M164.199 7.04488C164.199 5.36331 165.562 4.00012 167.244 4.00012H173.333C175.015 4.00012 176.378 5.36331 176.378 7.04488V37.7969C176.378 39.4785 175.015 40.8417 173.333 40.8417H167.244C165.562 40.8417 164.199 39.4785 164.199 37.7969V7.04488Z" stroke="#513513" stroke-width="6.08952"/>
<path d="M341.1 7.04488C341.1 5.36331 342.463 4.00012 344.144 4.00012H349.929C351.611 4.00012 352.974 5.36331 352.974 7.04488V37.7969C352.974 39.4785 351.611 40.8417 349.929 40.8417H344.144C342.463 40.8417 341.1 39.4785 341.1 37.7969V7.04488Z" stroke="#513513" stroke-width="6.08952"/>
<path d="M162.521 44.7754C162.499 41.1609 157.317 40.5892 156.508 44.112L92.5896 322.409C92.1516 324.316 93.6004 326.135 95.5571 326.135H161.136C162.825 326.135 164.191 324.761 164.181 323.073L162.521 44.7754Z" fill="#FFAB40" stroke="#513513" stroke-width="6.08952"/>
<path d="M158.965 47.4683C159.782 44.0107 155.023 42.1926 153.326 45.3141L3.44568 321.028C2.34278 323.056 3.81148 325.527 6.12072 325.527H90.861C92.2729 325.527 93.4995 324.556 93.8242 323.182L158.965 47.4683Z" fill="#879819" stroke="#513513" stroke-width="6.08952"/>
<path d="M168.142 52.4768C166.586 49.7534 162.436 50.8987 162.46 54.0351L164.48 323.068C164.493 324.758 165.846 326.115 167.536 326.091C221.603 325.3 323.118 324.266 327.267 326.021C323.187 320.647 222.96 148.434 168.142 52.4768Z" fill="#879819"/>
<path d="M327.267 326.021C323.118 324.266 221.603 325.3 167.536 326.091C165.846 326.115 164.493 324.758 164.48 323.068L162.46 54.0351C162.436 50.8987 166.586 49.7534 168.142 52.4768C222.96 148.434 323.187 320.647 327.267 326.021ZM327.267 326.021C327.354 326.136 327.398 326.175 327.398 326.136C327.398 326.096 327.354 326.058 327.267 326.021Z" stroke="#513513" stroke-width="6.08952"/>
</svg>
